<svg xmlns="http://www.w3.org/2000/svg" xmlns:xlink="http://www.w3.org/1999/xlink" fill="none" version="1.1" width="12" height="12" viewBox="0 0 12 12"><g style="mix-blend-mode:passthrough"><g><g style="mix-blend-mode:passthrough"><path d="M7.672193431976319,0.403781C8.20473043197632,-0.134594,9.068140431976317,-0.134594,9.600680431976318,0.403781L11.600600431976318,2.42562C12.13313043197632,2.96399,12.13313043197632,3.83687,11.600600431976318,4.37525C11.068060431976319,4.91362,10.204640431976319,4.91362,9.672110431976318,4.37525L7.672193431976319,2.35341C7.139656431976318,1.81503,7.139656431976318,0.942156,7.672193431976319,0.403781Z" fill-rule="evenodd" fill="#FFC430" fill-opacity="1"/></g><g style="mix-blend-mode:passthrough"><path d="M4.32781,0.403781C3.79527,-0.134594,2.93185,-0.134594,2.39932,0.403781L0.399403,2.42562C-0.133134,2.96399,-0.133134,3.83687,0.399403,4.37525C0.93194,4.91362,1.79535,4.91362,2.32789,4.37525L4.32781,2.35341C4.86034,1.81503,4.86034,0.942156,4.32781,0.403781Z" fill-rule="evenodd" fill="#FFC430" fill-opacity="1"/></g><g style="mix-blend-mode:passthrough"><path d="M4.145215292510986,9.257852505444337C3.8311852925109866,9.074558105444336,3.4296252925109862,9.183333205444336,3.248323292510986,9.500808705444335L2.3897287925109865,11.004233705444335C2.2084215925109865,11.321713705444335,2.3160173925109864,11.727663705444336,2.6300512925109865,11.910963705444336C2.9440842925109862,12.094253705444336,3.3456352925109862,11.985483705444336,3.5269452925109865,11.668003705444336L4.385535292510987,10.164576705444336C4.566845292510987,9.847101705444336,4.459245292510986,9.441147705444337,4.145215292510986,9.257852505444337Z" fill-rule="evenodd" fill="#FFA81C" fill-opacity="1"/></g><g style="mix-blend-mode:passthrough"><path d="M7.8523213044128415,9.257852505444337C8.166354304412842,9.074558105444336,8.567905304412841,9.183333205444336,8.749215304412841,9.500808705444335L9.607805304412842,11.004233705444335C9.789115304412842,11.321713705444335,9.68151530441284,11.727663705444336,9.367485304412842,11.910963705444336C9.053455304412841,12.094253705444336,8.651895304412841,11.985483705444336,8.470593304412843,11.668003705444336L7.611998804412842,10.164576705444336C7.430691604412842,9.847101705444336,7.538287404412841,9.441147705444337,7.8523213044128415,9.257852505444337Z" fill-rule="evenodd" fill="#FFA81C" fill-opacity="1"/></g><g style="mix-blend-mode:passthrough"><ellipse cx="6.000872373580933" cy="6.168768882751465" rx="4.848527431488037" ry="4.901673793792725" fill="#FF5555" fill-opacity="1"/></g><g style="mix-blend-mode:passthrough"><path d="M4.725934887275695,1.4384870529174805C4.712264887275696,1.7582870529174803,4.589044887275696,2.0741930529174804,4.356264887275696,2.3237830529174803L4.327804887275696,2.3534110529174805L2.327892887275696,4.37524705291748C2.0581718872756958,4.64792705291748,1.703572887275696,4.78249705291748,1.3500748872756958,4.77896705291748C1.8201438872756959,3.1686970529174805,3.0860348872756957,1.9036510529174806,4.687344887275696,1.4490993529174805L4.725934887275695,1.4384870529174805Z" fill-rule="evenodd" fill="#EE002D" fill-opacity="0.5"/></g><g style="mix-blend-mode:passthrough"><path d="M7.274148464202881,1.4378643035888672C8.89446846420288,1.8825113035888672,10.177658464202882,3.155214303588867,10.65168846420288,4.778764303588867C10.29757846420288,4.782934303588867,9.942268464202881,4.648374303588867,9.67210846420288,4.375254303588868L7.672193464202881,2.3534123035888674C7.422566464202881,2.1010483035888674,7.2899519642028805,1.7751853035888672,7.274350315202881,1.4447293935888672L7.274148464202881,1.4378643035888672Z" fill-rule="evenodd" fill="#EE002D" fill-opacity="0.5"/></g><g style="mix-blend-mode:passthrough"><path d="M5.682088386871338,3.1090623012390135L5.484615986871338,6.365308301239013C5.473856136871338,6.542728301239014,5.586341386871338,6.704328301239014,5.756463386871338,6.755838301239014L8.370061386871338,7.5472583012390135C8.547491386871338,7.600988301239013,8.726441386871338,7.468198301239013,8.726441386871338,7.2828083012390135C8.726441386871338,7.180008301239013,8.669371386871338,7.085708301239014,8.578291386871339,7.038018301239013L6.625341386871338,6.0155883012390134L6.366812386871338,3.0995253012390136C6.353482386871338,2.9491723012390136,6.243521386871338,2.825158301239014,6.095844386871338,2.7939285012390136C5.8906183868713375,2.7505285012390135,5.694786386871338,2.8996823012390136,5.682088386871338,3.1090623012390135" fill-rule="evenodd" fill="#FFB2B2" fill-opacity="1"/></g></g></g></svg>