<svg xmlns="http://www.w3.org/2000/svg" xmlns:xlink="http://www.w3.org/1999/xlink" fill="none" version="1.1" width="12" height="11.830985069274902" viewBox="0 0 12 11.830985069274902"><defs><linearGradient x1="0.14878888428211212" y1="0.08588530868291855" x2="0.5" y2="0.5796204805374146" id="master_svg0_43_75093"><stop offset="0%" stop-color="#2BC79F" stop-opacity="1"/><stop offset="100%" stop-color="#36E7B0" stop-opacity="1"/></linearGradient><linearGradient x1="0.14878888428211212" y1="0.08588530868291855" x2="0.5" y2="0.5796204805374146" id="master_svg1_43_75093"><stop offset="0%" stop-color="#2BC79F" stop-opacity="1"/><stop offset="100%" stop-color="#36E7B0" stop-opacity="1"/></linearGradient><linearGradient x1="0.2036227583885193" y1="0.08198729902505875" x2="0.5861650109291077" y2="1" id="master_svg2_43_75090"><stop offset="0%" stop-color="#48FFCB" stop-opacity="1"/><stop offset="100%" stop-color="#1ACE98" stop-opacity="1"/></linearGradient></defs><g style="mix-blend-mode:passthrough"><g><g style="mix-blend-mode:passthrough"><rect x="2.873239278793335" y="0" width="1.9436619281768799" height="2.7887322902679443" rx="0.9718309640884399" fill="url(#master_svg0_43_75093)" fill-opacity="1"/></g><g style="mix-blend-mode:passthrough"><rect x="7.183098316192627" y="0" width="1.9436619281768799" height="2.7887322902679443" rx="0.9718309640884399" fill="url(#master_svg1_43_75093)" fill-opacity="1"/></g><g style="mix-blend-mode:passthrough"><path d="M0,9.83098072418213C0,10.935550724182129,0.895431,11.83094072418213,2,11.83094072418213L10,11.83094072418213C11.1046,11.83094072418213,12,10.935550724182129,12,9.83098072418213L12,3.690140724182129C12,2.5855717241821288,11.1046,1.690140724182129,10,1.690140724182129L2,1.690140724182129C0.895431,1.690140724182129,0,2.5855717241821288,0,3.690140724182129L0,9.83098072418213Z" fill="url(#master_svg2_43_75090)" fill-opacity="1"/></g><g style="mix-blend-mode:passthrough"><path d="M8.690541087265014,4.579446668365478C8.944481087265014,4.338528468365478,9.345641087265015,4.3490854683654785,9.586561087265014,4.603026668365478C9.822241087265015,4.851447668365479,9.817261087265015,5.240758668365478,9.579201087265016,5.483113668365478L9.562981087265015,5.4990536683654785L6.023721087265015,8.85680366836548C5.804181087265015,9.065083668365478,5.469071087265014,9.088483668365479,5.223241087265015,8.915683668365478L5.204511087265015,8.902003668365477L3.0467660872650146,7.265563668365479C2.7678634872650147,7.054043668365479,2.713239987265015,6.656473668365479,2.9247610872650145,6.3775736683654785C3.1317810872650145,6.1046036683654785,3.5170150872650146,6.046473668365478,3.794791087265015,6.242423668365479L3.8127510872650143,6.255563668365479L5.5416310872650145,7.566763668365478L8.690541087265014,4.579446668365478Z" fill="#FDEF0A" fill-opacity="1"/></g></g></g></svg>