<svg xmlns="http://www.w3.org/2000/svg" xmlns:xlink="http://www.w3.org/1999/xlink" fill="none" version="1.1" width="20" height="20" viewBox="0 0 20 20"><defs><linearGradient x1="0.28120681643486023" y1="0.06441029906272888" x2="0.7250660061836243" y2="0.9317269921302795" id="master_svg0_43_76238"><stop offset="0%" stop-color="#FFDA00" stop-opacity="1"/><stop offset="100%" stop-color="#FFC400" stop-opacity="1"/></linearGradient></defs><g style="mix-blend-mode:passthrough"><g><g style="mix-blend-mode:passthrough"><ellipse cx="10" cy="10" rx="10" ry="10" fill="url(#master_svg0_43_76238)" fill-opacity="1"/></g><g style="mix-blend-mode:passthrough"><ellipse cx="12.682924509048462" cy="5.6910560131073" rx="1.4634144306182861" ry="1.4634144306182861" fill="#333333" fill-opacity="1"/></g><g style="mix-blend-mode:passthrough"><path d="M9.430895514984131,12.032523067016601C10.77792551498413,12.032523067016601,11.86991551498413,10.940533067016602,11.86991551498413,9.593494067016602C11.86991551498413,9.349011067016601,11.83394551498413,9.112929067016601,11.767005514984131,8.890253067016602C11.767005514984131,8.890253067016602,7.100625514984131,10.315903067016603,7.100625514984131,10.315903067016603C7.408536514984131,11.3102330670166,8.335365514984131,12.032523067016601,9.430895514984131,12.032523067016601Z" fill-rule="evenodd" fill="#FF6547" fill-opacity="1"/></g><g style="mix-blend-mode:passthrough"><path d="M2.149889191244507,7.022569554046631C2.254064791244507,6.7469393540466305,2.553395791244507,6.604068354046631,2.828684791244507,6.693001354046631L2.857067791244507,6.703032254046631L4.687670791244507,7.406406554046631C4.9595507912445065,7.510871554046631,5.101450791244506,7.81016555404663,5.015750791244507,8.08690555404663L5.0060707912445075,8.11544555404663L4.293040791244507,10.046615554046632C4.187460791244507,10.332575554046631,3.8719407912445067,10.47809555404663,3.588330791244507,10.37163555404663C3.3141607912445066,10.26872555404663,3.170160791244507,9.96802555404663,3.256240791244507,9.689785554046631L3.2659707912445066,9.66109555404663L3.7891707912445067,8.243645554046632L2.4668057912445067,7.735595554046631C2.1934361912445066,7.630559554046631,2.0517370912445068,7.3287525540466305,2.139940491244507,7.0511875540466304L2.149889191244507,7.022569554046631Z" fill="#333333" fill-opacity="1"/></g></g></g></svg>