<svg xmlns="http://www.w3.org/2000/svg" xmlns:xlink="http://www.w3.org/1999/xlink" fill="none" version="1.1" width="12" height="14.956538200378418" viewBox="0 0 12 14.956538200378418"><defs><linearGradient x1="0.08196442574262619" y1="0.06990399956703186" x2="0.9651358127593994" y2="0.935792088508606" id="master_svg0_9_86840"><stop offset="0%" stop-color="#6FFFE9" stop-opacity="1"/><stop offset="100%" stop-color="#05D0E2" stop-opacity="1"/></linearGradient><linearGradient x1="0.5" y1="0" x2="0.5" y2="1" id="master_svg1_9_86834"><stop offset="0%" stop-color="#37FEE0" stop-opacity="1"/><stop offset="100%" stop-color="#01CCE1" stop-opacity="1"/></linearGradient></defs><g style="mix-blend-mode:passthrough"><g><g style="mix-blend-mode:passthrough"><path d="M0.52173912525177,9.26087137172699C0.52173912525177,9.81315137172699,0.96945412525177,10.26087137172699,1.52173912525177,10.26087137172699L11.00003912525177,10.26087137172699C11.55223912525177,10.26087137172699,12.00003912525177,9.81315137172699,12.00003912525177,9.26087137172699L12.00003912525177,2.2173913717269897C12.00003912525177,1.6651063717269898,11.55223912525177,1.2173913717269897,11.00003912525177,1.2173913717269897L1.52173912525177,1.2173913717269897C0.96945412525177,1.2173913717269897,0.52173912525177,1.6651063717269898,0.52173912525177,2.2173913717269897L0.52173912525177,9.26087137172699Z" fill="url(#master_svg0_9_86840)" fill-opacity="1"/></g><g style="mix-blend-mode:passthrough"><path d="M1.91302,0.869565Q1.91302,0.97081,1.88976,1.06935Q1.8665,1.16788,1.82122,1.25844Q1.77594,1.349,1.71107,1.42673Q1.6462,1.50446,1.56521,1.56521L1.56521,14.0526C1.86653,14.2269,2.07261,14.5476,2.08624,14.9174L2.08696,14.9565L1.56521,14.9565L1.56521,14.9565L0.521729,14.9565L0.521729,14.9565L0,14.9565L0.000719734,14.9174C0.0143492,14.5476,0.220415,14.2269,0.521729,14.0526L0.521729,1.56523Q0.440728,1.50448,0.375852,1.42675Q0.310976,1.34901,0.265695,1.25845Q0.220415,1.16789,0.197152,1.06935Q0.173889,0.970814,0.173889,0.869565Q0.173889,0.783921,0.190598,0.699921Q0.207306,0.615922,0.240081,0.536797Q0.272856,0.457672,0.320437,0.386461Q0.368019,0.31525,0.428579,0.25469Q0.489139,0.19413,0.56035,0.146548Q0.631561,0.0989665,0.710686,0.0661917Q0.789811,0.0334169,0.873811,0.0167085Q0.95781,0,1.04345,0Q1.1291,0,1.2131,0.0167085Q1.2971,0.0334169,1.37622,0.0661917Q1.45535,0.0989665,1.52656,0.146548Q1.59777,0.19413,1.65833,0.25469Q1.71889,0.31525,1.76647,0.386461Q1.81405,0.457672,1.84683,0.536797Q1.8796,0.615922,1.89631,0.699921Q1.91302,0.783921,1.91302,0.869565Z" fill-rule="evenodd" fill="url(#master_svg1_9_86834)" fill-opacity="1"/></g><g style="mix-blend-mode:passthrough"><path d="M4.933914463256836,5.4933772426605225L5.271416463256836,5.3394272426605225C5.769541463256836,5.1122072426605225,6.168290463256836,4.711954242660522,6.3936304632568355,4.2129782426605225L6.543400463256836,3.8813422426605224C6.602700463256836,3.7500364426605226,6.757220463256836,3.6916632426605225,6.888520463256835,3.7509616426605223C6.946780463256836,3.7772706426605223,6.993350463256836,3.8240533426605223,7.019390463256836,3.8824292426605225L7.162660463256836,4.203583242660523C7.387820463256836,4.708290242660523,7.790040463256836,5.113047242660523,8.293320463256837,5.341377242660522L8.661880463256836,5.508577242660523C8.793080463256835,5.568097242660523,8.851190463256836,5.722717242660522,8.791660463256836,5.853917242660522C8.766400463256836,5.909617242660522,8.722360463256836,5.9546672426605225,8.667260463256836,5.981187242660523L8.246290463256836,6.183847242660523C7.771800463256836,6.412277242660522,7.391930463256836,6.799177242660523,7.172240463256836,7.277777242660522L7.025300463256836,7.597877242660522C6.965200463256836,7.728817242660522,6.810330463256836,7.786237242660523,6.679390463256836,7.726137242660522C6.621230463256836,7.699447242660522,6.574920463256836,7.652307242660522,6.549250463256836,7.5936972426605225L6.403450463256836,7.260727242660522C6.172650463256836,6.733657242660522,5.749150463256836,6.314707242660523,5.219618463256836,6.089607242660522L4.940121463256836,5.970797242660522C4.807530163256836,5.914437242660522,4.745735263256836,5.761257242660522,4.802098963256836,5.628667242660523C4.827595363256836,5.5686872426605225,4.874619163256836,5.520417242660523,4.933914463256836,5.4933772426605225Z" fill-rule="evenodd" fill="#E6FCFB" fill-opacity="1"/></g></g></g></svg>