<svg xmlns="http://www.w3.org/2000/svg" xmlns:xlink="http://www.w3.org/1999/xlink" fill="none" version="1.1" width="154.0004425048828" height="138" viewBox="0 0 154.0004425048828 138"><g style="mix-blend-mode:passthrough"><g><g style="mix-blend-mode:passthrough"><g><g style="mix-blend-mode:passthrough"><path d="M104.46797945556641,97.78323635253906L89.7465794555664,88.34913635253906L83.83667945556641,92.11245635253906L81.0705794555664,90.34690635253907L70.1616794555664,98.14076635253906L69.83407945556641,97.93251635253907L43.087379455566406,115.52173635253907L55.241479455566406,123.87213635253906L82.7653794555664,106.20373635253907L86.31527945556641,108.35263635253907L92.0564794555664,104.69803635253906L92.8285794555664,105.19193635253906L104.46797945556641,97.78323635253906Z" fill="#000000" fill-opacity="0.10000000149011612"/></g><g style="mix-blend-mode:passthrough"><path d="M114.87046553344726,83.2221450805664L26.093265533447266,119.92084508056641L54.491165533447266,138.0001450805664L127.37226553344726,91.18185508056641L114.87046553344726,83.2221450805664Z" fill="#FFFFFF" fill-opacity="0.11999999731779099"/></g><g style="mix-blend-mode:passthrough"><g><g style="mix-blend-mode:passthrough"><path d="M148.08180327148438,35.6468C149.3888032714844,36.478,150.44340327148439,38.4923,150.4384032714844,40.1473L150.41160327148438,50.6946C150.40660327148436,52.3496,149.34530327148437,53.0167,148.04000327148438,52.1855L116.16874327148437,31.8963C114.86341327148438,31.0652,113.80710695148437,29.050800000000002,113.81212104868438,27.3958L113.83886287148438,16.84852C113.84387697148438,15.193537,114.90519327148438,14.526383,116.21052327148438,15.357561L148.08180327148438,35.6468Z" fill="#FFFFFF" fill-opacity="1"/></g></g></g><g style="mix-blend-mode:passthrough"><g><g style="mix-blend-mode:passthrough"><path d="M8.00743,55.410356382629395L8.69436,60.90231938262939L0,65.0987093826294L5.72437,54.691609382629395L6.72884,56.9584293826294L8.00743,55.410356382629395Z" fill="#5F9C1A" fill-opacity="1"/></g><g style="mix-blend-mode:passthrough"><path d="M8.00745,55.4103684425354L0,65.0987384425354L14.0277,55.9485094425354L8.00745,55.4103684425354Z" fill="#99CE3D" fill-opacity="1"/></g><g style="mix-blend-mode:passthrough"><path d="M0,65.09876803588867L5.72438,54.69161803588867L2.05576,51.26926803588867L0,65.09876803588867Z" fill="#99CE3D" fill-opacity="1"/></g></g></g><g style="mix-blend-mode:passthrough"><g><g style="mix-blend-mode:passthrough"><path d="M150.39477047531128,33.36516091607666L150.37639047531127,40.60239991607666L149.04934047531128,39.75648991607666L149.0627104753113,34.48013991607666L148.34068747531128,35.11779991607666L147.62535047531128,33.49600891607666L149.0677204753113,32.51924991607666L150.39477047531128,33.36516091607666Z" fill="#FFFFFF" fill-opacity="1"/></g><g style="mix-blend-mode:passthrough"><path d="M154.00040415302902,39.12620793426514C154.00877415302904,35.97476793426514,151.99981415302904,32.13775793426514,149.51283415302905,30.554671934265137C147.02754415302903,28.971583934265137,145.00521135302904,30.243213934265135,144.99518321402903,33.39464793426514C144.98682646302905,36.546077934265135,146.99745415302903,40.38122793426514,149.48275415302902,41.964327934265135C151.96972415302903,43.54742793426514,153.99205415302904,42.27762793426514,154.00040415302902,39.12620793426514ZM150.41686415302902,33.365177934265134L150.39848415302905,40.60242793426514L149.07143415302903,39.758337934265136L149.08480415302904,34.48199793426514L148.36277415302902,35.11781793426513L147.64744415302903,33.49786793426514L149.08981415302904,32.52110793426514L150.41686415302902,33.365177934265134Z" fill-rule="evenodd" fill="#99CE3D" fill-opacity="1"/></g></g></g><g style="mix-blend-mode:passthrough"><g><g style="mix-blend-mode:passthrough"><path d="M101.82022857666016,49.809748235473634L110.34420857666015,44.41723823547363L108.88175857666016,48.51782823547363L110.84561857666016,50.336838235473635L101.82022857666016,56.140338235473635L101.82022857666016,49.809748235473634Z" fill="#D14434" fill-opacity="1"/></g><g style="mix-blend-mode:passthrough"><g><g style="mix-blend-mode:passthrough"><path d="M85.64830022827148,97.24916698532104L82.47775022827149,93.30711698532104L81.13733022827148,93.53748498532104C81.13733022827148,93.53748498532104,78.99298822827149,94.94917698532105,79.74509522827148,100.28818698532105C80.75125022827149,104.31131698532104,85.12182022827149,104.91761698532105,85.12182022827149,104.91761698532105L84.28949022827149,100.32687698532105L85.64830022827148,97.24916698532104Z" fill="#000000" fill-opacity="1"/></g><g style="mix-blend-mode:passthrough"><path d="M88.12021871322632,93.62779059484863C86.74971871322632,94.49950159484864,85.64328164322632,96.61520159484863,85.64829568782632,98.34941159484863C85.65330973322632,100.08362159484864,86.76809871322632,100.78578159484863,88.13692871322633,99.91406159484863C89.50743871322632,99.04235159484864,90.61386871322632,96.92666159484864,90.60885871322631,95.19245159484863C90.60551871322632,93.45639659484863,89.49072871322632,92.75607959484863,88.12021871322632,93.62779059484863Z" fill="#F1F1F1" fill-opacity="1"/></g><g style="mix-blend-mode:passthrough"><path d="M88.16922215660095,104.08846696472168C91.36317215660095,102.05566696472168,93.93709215660095,97.13866696472168,93.92699215660096,93.09337696472168C93.91539215660094,89.04808496472168,91.32473215660096,87.42075696472168,88.13243215660096,89.45169196472168C84.94015215660096,91.48447696472168,82.35957625660095,96.40516696472167,82.36960439060095,100.45046696472168C82.37963255660095,104.49576696472168,84.97692215660095,106.12126696472168,88.16922215660095,104.08846696472168ZM90.63093215660095,95.19062696472167C90.63595215660095,96.92667696472168,89.52951215660096,99.04236696472168,88.15901215660095,99.91406696472168C86.78850215660096,100.78576696472167,85.67371215660096,100.08546696472168,85.67037215660095,98.34943696472168C85.66536215660095,96.61337696472168,86.77179215660095,94.49768696472168,88.14229215660094,93.62596696472168C89.51113215660095,92.75425696472168,90.62592215660095,93.45457696472168,90.63093215660095,95.19062696472167Z" fill-rule="evenodd" fill="#363636" fill-opacity="1"/></g></g></g><g style="mix-blend-mode:passthrough"><path d="M69.83409118652344,92.51075116882325L69.89927448652344,84.85690116882324L81.17939118652343,90.87051116882324L81.05399118652343,99.65780116882324L69.83409118652344,92.51075116882325Z" fill="#D14434" fill-opacity="1"/></g><g style="mix-blend-mode:passthrough"><g><g style="mix-blend-mode:passthrough"><path d="M89.71475334503174,87.26037029754639C90.82453334503174,86.55452029754639,91.61006334503173,86.17118629754638,91.65185334503174,86.15091329754638C97.92948334503174,83.17454029754639,98.74338334503173,90.20542029754638,98.80688334503174,93.2407802975464C98.82198334503174,93.94294029754639,98.37568334503175,94.81097029754639,97.81248334503174,95.17035029754639L86.31354334503173,102.49055029754639C85.76199234503174,102.84075029754638,85.31406844503174,102.56425029754638,85.31239714503174,101.86585029754639L85.28899810073173,92.70079029754639C85.28565538503175,91.65214029754638,85.85057434503173,90.37681029754638,86.65449334503174,89.61199029754638C87.66065334503173,88.65365029754639,88.78715334503174,87.85196029754638,89.71475334503174,87.26037029754639Z" fill="#DA695D" fill-opacity="1"/></g><g style="mix-blend-mode:passthrough"><path d="M90.10752268798828,88.4011556463623C91.03011268798828,87.8132566463623,91.68362268798828,87.4944246463623,91.71871268798829,87.4778386463623C96.93999268798828,85.0027456463623,97.61689268798828,90.8504456463623,97.67039268798828,93.3734556463623C97.68379268798829,93.9576756463623,97.31279268798828,94.68011564636231,96.84309268798827,94.9786656463623L87.27958968798828,101.0659656463623C86.82163768798829,101.3571656463623,86.44892478798828,101.1267656463623,86.44725338798828,100.5462656463623L86.42719713460828,92.9237756463623C86.42552577798828,92.0520556463623,86.89517668798828,90.9905156463623,87.56372268798827,90.3546956463623C88.39940268798829,89.5603756463623,89.33536268798828,88.89138564636231,90.10752268798828,88.4011556463623Z" fill="#D14434" fill-opacity="1"/></g><g style="mix-blend-mode:passthrough"><path d="M90.68577732543946,82.40418210369873C89.63785732543946,81.73150310369873,88.17207732543946,81.63935510369873,86.12467732543945,82.60875010369872C86.08288732543946,82.62902210369873,85.29734732543946,83.01235410369873,84.18756732543946,83.71821410369873C83.25829732543946,84.30979410369874,82.13347732543946,85.11148410369873,81.12898732543945,86.06797410369873C80.32506732543945,86.83465410369872,79.76014936543946,88.10813410369873,79.76349208103946,89.15677410369874L79.78689112543945,98.32176410369873C79.78856242543945,98.66826410369873,79.89887232543946,98.90966410369873,80.07603632543945,99.02396410369873L85.60320732543946,102.56616410369872C85.42437732543945,102.45186410369874,85.31406732543945,102.20856410369873,85.31406732543945,101.86396410369873L85.29066732543946,92.69896410369873C85.28732732543945,91.65029410369873,85.85224732543945,90.37496410369873,86.65616732543945,89.61013410369873C87.66065732543946,88.65364410369872,88.78714732543945,87.85196410369873,89.71474732543945,87.26037410369872C90.82457732543945,86.55452410369872,91.61007732543945,86.17118410369874,91.65187732543946,86.15091410369872C93.69927732543945,85.18151410369873,95.16507732543946,85.27366410369874,96.21297732543945,85.94634410369873L90.68577732543946,82.40418210369873Z" fill="#D14434" fill-opacity="1"/></g><g style="mix-blend-mode:passthrough"><g><g style="mix-blend-mode:passthrough"><rect x="88.59668380022049" y="85.58513164520264" width="0.39778316020965576" height="23.359291076660156" rx="0" fill="#DA695D" fill-opacity="1"/></g><g style="mix-blend-mode:passthrough"><rect x="87.66573667526245" y="86.0772008895874" width="0.39778316020965576" height="23.359291076660156" rx="0" fill="#DA695D" fill-opacity="1"/></g><g style="mix-blend-mode:passthrough"><rect x="89.57108414173126" y="84.1715817451477" width="0.39778316020965576" height="23.359291076660156" rx="0" fill="#DA695D" fill-opacity="1"/></g><g style="mix-blend-mode:passthrough"><rect x="90.54715824127197" y="83.40675258636475" width="0.39778316020965576" height="23.359291076660156" rx="0" fill="#DA695D" fill-opacity="1"/></g><g style="mix-blend-mode:passthrough"><rect x="91.52155995368958" y="82.64193058013916" width="0.39778316020965576" height="23.359291076660156" rx="0" fill="#DA695D" fill-opacity="1"/></g><g style="mix-blend-mode:passthrough"><rect x="92.49763584136963" y="81.87709760665894" width="0.39778316020965576" height="23.359291076660156" rx="0" fill="#DA695D" fill-opacity="1"/></g><g style="mix-blend-mode:passthrough"><rect x="93.47203302383423" y="81.1122727394104" width="0.39778316020965576" height="23.359291076660156" rx="0" fill="#DA695D" fill-opacity="1"/></g><g style="mix-blend-mode:passthrough"><rect x="94.44810676574707" y="80.34560191631317" width="0.39778316020965576" height="23.359291076660156" rx="0" fill="#DA695D" fill-opacity="1"/></g><g style="mix-blend-mode:passthrough"><rect x="95.4225115776062" y="79.58077424764633" width="0.39778316020965576" height="23.359291076660156" rx="0" fill="#DA695D" fill-opacity="1"/></g><g style="mix-blend-mode:passthrough"><rect x="96.39858388900757" y="78.81594657897949" width="0.39778316020965576" height="23.359291076660156" rx="0" fill="#DA695D" fill-opacity="1"/></g></g></g></g></g><g style="mix-blend-mode:passthrough"><path d="M68.00572654571533,110.12395635681152L82.79242654571533,100.76531635681152L69.83422654571532,92.51065635681152L57.00482654571533,101.03069635681152L68.00572654571533,110.12395635681152Z" fill="#9D3327" fill-opacity="1"/></g><g style="mix-blend-mode:passthrough"><path d="M91.24743450317382,85.23866142883301L101.55303450317382,78.80304142883301C102.49913450317382,78.21145142883302,102.54423450317383,76.726011428833,101.63663450317382,76.066231428833L92.64803450317383,69.53476142883301L76.14833450317383,77.97370142883301L87.49693450317383,85.218361428833C88.65513450317383,85.959261428833,90.08253450317383,85.966661428833,91.24743450317382,85.23866142883301Z" fill="#3E3834" fill-opacity="1"/></g><g style="mix-blend-mode:passthrough"><g><g style="mix-blend-mode:passthrough"><path d="M87.16599017333985,82.00791322833253L80.13799017333984,86.51023622833252C77.37694017333985,88.27945622833252,72.88769017333985,88.27945622833252,70.10990017333984,86.51023622833252C68.71098317333984,85.62008622833253,68.01403017333985,84.45166622833251,68.01570157333984,83.28507622833251L68.00400211153985,87.56992622833252C68.00065940333984,88.73651622833252,68.69928317333985,89.90494622833252,70.09820017333985,90.79508622833252C72.87599017333984,92.56427622833252,77.36523017333984,92.56427622833252,80.12629017333984,90.79508622833252L87.15269017333985,86.29276622833252C87.48699017333985,86.07898622833252,87.65239017333984,85.79885622833253,87.65409017333984,85.51872622833253L87.66579017333984,81.23387622833252C87.66579017333984,81.51584722833252,87.49859017333984,81.79413222833251,87.16599017333985,82.00791322833253Z" fill="#EBD4AE" fill-opacity="1"/></g><g style="mix-blend-mode:passthrough"><path d="M87.15973223111033,80.45062384033203C87.83493223111033,80.88003384033203,87.83833223111034,81.57850384033203,87.16813223111033,82.00791384033204L80.14003223111034,86.51022384033203C77.37898223111034,88.27942384033203,72.88972223111034,88.27942384033203,70.11193223111033,86.51022384033203C67.33414423111033,84.74099384033204,67.31910223111034,81.87337384033204,70.07850223111033,80.10599384033203L77.10487223111033,75.60367784033203C77.77675223111034,75.17427284033204,78.86813223111034,75.17427284033204,79.54333223111033,75.60367784033203L87.15973223111033,80.45062384033203Z" fill="#F1E1C9" fill-opacity="1"/></g></g></g><g style="mix-blend-mode:passthrough"><path d="M71.35516022644043,74.76864814758301L70.83696022644043,76.838298147583L60.48456022644043,81.61894814758301L59.06056022644043,95.46144814758301L61.84338022644043,96.030948147583L63.91420022644043,84.40181814758301L72.52006022644044,81.83272814758301L74.23486022644043,81.725838147583L75.12066022644044,77.12395814758301L71.35516022644043,74.76864814758301Z" fill="#351B03" fill-opacity="1"/></g><g style="mix-blend-mode:passthrough"><path d="M52.739509645385745,103.25709903869628C52.739509645385745,103.25709903869628,48.44910964538574,102.20669903869629,47.97277130538574,91.16909903869629C47.97277130538574,91.16909903869629,47.496432645385745,75.40072903869628,57.029889645385744,81.18210903869628C57.029889645385744,81.18210903869628,64.65633964538574,84.86066903869629,63.70363964538574,89.59155903869629C63.70363964538574,89.59155903869629,61.79663964538574,100.6290990386963,64.65633964538574,105.35999903869629L68.00743964538574,110.12409903869629L52.739509645385745,103.25709903869628Z" fill="#D14434" fill-opacity="1"/></g><g style="mix-blend-mode:passthrough"><g><g style="mix-blend-mode:passthrough"><path d="M89.54264261840821,53.05155956702881L104.2639776184082,62.48560026702881C104.0633776184082,62.35659026702881,103.78587761840821,62.37502026702881,103.4800776184082,62.57037026702881L88.7587776184082,53.136335267028805C89.0646356184082,52.94098286702881,89.3420806184082,52.924396367028805,89.54264261840821,53.05155956702881Z" fill="#F6E29B" fill-opacity="1"/></g><g style="mix-blend-mode:passthrough"><path d="M91.0970509210348,85.69755906219483L76.37575092103481,76.26343006219483C76.17853192103482,76.13626606219482,76.05485092103481,75.86719406219483,76.05485092103481,75.48385906219482L90.77615092103481,84.91794906219482C90.77615092103481,85.30128906219483,90.89815092103481,85.57035906219483,91.0970509210348,85.69755906219483Z" fill="#F5DB83" fill-opacity="1"/></g><g style="mix-blend-mode:passthrough"><path d="M90.7745449763298,84.9181535949707L76.05487217632981,75.4858535949707L76.0214449763298,62.6441535949707L90.7427449763298,72.0764035949707L90.7745449763298,84.9181535949707Z" fill="#F5DB83" fill-opacity="1"/></g><g style="mix-blend-mode:passthrough"><path d="M91.84090957775116,69.97923680343628L77.11950957775116,60.54689680343628L88.75890957775115,53.13633680343628L103.48030957775116,62.570466803436275L91.84090957775116,69.97923680343628Z" fill="#F5DB83" fill-opacity="1"/></g><g style="mix-blend-mode:passthrough"><path d="M103.48010057678222,62.570432325439455C104.08850057678222,62.18341132543945,104.58320057678223,62.49487092543945,104.58490057678223,63.265227325439454L104.61830057678223,76.10700232543945C104.62000057678223,76.87730232543946,104.12860057678222,77.81720232543945,103.52020057678223,78.20420232543945L91.88090057678222,85.61480232543946C91.27252557678223,86.00180232543946,90.77780337678223,85.69030232543946,90.77613197678222,84.92000232543946L90.74270482783223,72.07825232543945C90.74103346678223,71.30790232543946,91.23241257678222,70.36799232543946,91.84079057678223,69.98096232543945L103.48010057678222,62.570432325439455Z" fill="#F0D06F" fill-opacity="1"/></g><g style="mix-blend-mode:passthrough"><path d="M90.74271952514648,72.07628815536499L76.02142377618648,62.64225815536499C76.01975242514648,61.87190815536499,76.51113052514648,60.93200615536499,77.11949952514648,60.54498815536499L91.84081952514649,69.97902815536499C91.23241952514648,70.366048155365,90.73931952514648,71.30598815536499,90.74271952514648,72.07628815536499Z" fill="#F6E29B" fill-opacity="1"/></g></g></g><g style="mix-blend-mode:passthrough"><g><g style="mix-blend-mode:passthrough"><path d="M51.619641838226315,112.98028518753051L48.449091838226316,109.03823518753052L47.10867183822632,109.26860318753052C47.10867183822632,109.26860318753052,44.96432983822632,110.68029518753052,45.716436838226315,116.01930518753052C46.72259183822632,120.04243518753051,51.093161838226315,120.64873518753052,51.093161838226315,120.64873518753052L50.260831838226316,116.05799518753052L51.619641838226315,112.98028518753051Z" fill="#000000" fill-opacity="1"/></g><g style="mix-blend-mode:passthrough"><path d="M54.09323831314087,109.357066074646C52.722738313140866,110.228773074646,51.61630124314087,112.34447307464599,51.62131528774087,114.080523074646C51.626329333140866,115.816573074646,52.741118313140866,116.51689307464599,54.10994831314087,115.645183074646C55.48045831314087,114.77347307464599,56.58688831314087,112.657773074646,56.58187831314087,110.923563074646C56.57686831314087,109.18567307464599,55.46206831314087,108.485355074646,54.09323831314087,109.357066074646Z" fill="#CACACA" fill-opacity="1"/></g><g style="mix-blend-mode:passthrough"><path d="M54.140563766555786,119.81957740478515C57.33451376655579,117.78677740478516,59.90843376655579,112.86977740478515,59.89833376655579,108.82449740478516C59.88833376655579,104.77920540478516,57.296073766555786,103.15002740478516,54.10377376655579,105.18281240478515C50.911493766555786,107.21559740478516,48.33091786655579,112.13628740478515,48.34094600055579,116.18157740478516C48.35097416655579,120.22687740478516,50.94826376655578,121.85237740478516,54.140563766555786,119.81957740478515ZM56.60227376655578,110.92173740478516C56.607293766555784,112.65778740478515,55.500853766555785,114.77347740478515,54.130353766555785,115.64517740478516C52.76151376655579,116.51687740478516,51.64673376655578,115.81657740478516,51.64171376655579,114.07868740478516C51.63670376655578,112.34448740478516,52.743133766555786,110.22878740478515,54.113633766555786,109.35707740478516C55.482473766555785,108.48536740478515,56.597263766555784,109.18567740478515,56.60227376655578,110.92173740478516Z" fill-rule="evenodd" fill="#363636" fill-opacity="1"/></g></g></g><g style="mix-blend-mode:passthrough"><path d="M52.157896995544434,99.84401703186035C52.157896995544434,99.84401703186035,52.48548599554444,86.40688703186035,55.91178699554443,83.84331703186035L55.91178699554443,83.84331703186035C55.91178699554443,83.84331703186035,54.39251699554443,95.00981703186035,55.59924699554443,99.57671703186035" fill="#DA695D" fill-opacity="1"/></g><g style="mix-blend-mode:passthrough"><path d="M58.99876516326904,82.96433851013184C58.99876516326904,82.96433851013184,61.00941516326904,80.33993851013183,64.60452516326905,81.99863851013184L70.10832516326904,83.93193851013183L70.86212516326904,81.99863851013184L58.99876516326904,76.31679851013183L53.15400516326904,69.41673851013184L51.82192516326904,71.17860851013184L53.91614516326904,73.81773851013183C54.81867516326904,74.95669851013183,55.31674516326904,76.41631851013183,55.31674516326904,77.92939851013183L55.31674516326904,78.66656851013184L58.99876516326904,82.96433851013184Z" fill="#D14434" fill-opacity="1"/></g><g style="mix-blend-mode:passthrough"><path d="M62.74771912240982,109.56361073913574C62.558819122409815,109.46781073913574,62.371619122409825,109.37931073913575,62.18611912240982,109.29821073913574C56.26611912240982,106.72542073913574,51.78517912240982,111.66461073913574,51.78517912240982,111.66461073913574C50.83249912240982,113.24221073913574,48.44912912240982,111.66461073913574,48.44912912240982,111.66461073913574L44.22390252240982,109.59491073913574L44.15871912240982,109.56361073913574C47.01842912240982,96.94847073913574,55.597619122409824,99.57654373913574,55.597619122409824,99.57654373913574C60.84231912240982,100.10178973913574,62.74771912240982,109.56361073913574,62.74771912240982,109.56361073913574Z" fill="#DA695D" fill-opacity="1"/></g><g style="mix-blend-mode:passthrough"><path d="M62.186102046680446,109.29814247131347C56.26610204668045,106.72536247131347,51.78517204668045,111.66449247131348,51.78517204668045,111.66449247131348C50.83249204668045,113.24209247131347,48.44912204668045,111.66449247131348,48.44912204668045,111.66449247131348L44.22390204668045,109.59486247131348C47.31761204668045,98.23111247131348,55.38860204668045,100.70437547131348,55.38860204668045,100.70437547131348C59.36820204668045,101.10430047131348,61.42560204668045,106.64795247131347,62.186102046680446,109.29814247131347Z" fill="#D14434" fill-opacity="1"/></g><g style="mix-blend-mode:passthrough"><g><g style="mix-blend-mode:passthrough"><path d="M69.61350699030304,103.25138282775879C69.61350699030304,103.25138282775879,69.76392899030304,104.2226128277588,69.32269299030304,105.3468028277588L70.25196199030304,105.93286282775878L71.19293299030304,105.60666282775878L71.52051299030305,103.63655782775879L69.61350699030304,103.25138282775879Z" fill="#E7BDB8" fill-opacity="1"/></g><g style="mix-blend-mode:passthrough"><path d="M69.27422176269532,105.40393816720581C69.27422176269532,105.40393816720581,68.71599176269531,107.2431921672058,67.79842276269531,107.82372216720582C67.79842276269531,107.82372216720582,67.04965876269532,109.10088216720581,68.03909576269531,109.61321216720582C68.03909576269531,109.61321216720582,69.62521176269532,110.5254721672058,70.41408176269532,107.8624221672058C70.41408176269532,107.8624221672058,70.59291176269531,107.07180216720582,70.95727176269531,106.61106216720582C71.07761176269531,106.45810216720581,71.15281176269531,106.26828216720581,71.18624176269532,106.0692401672058L71.29321176269531,105.21227216720581C71.29321176269531,105.21227216720581,70.99571176269531,105.88863116720582,70.69152176269532,106.00105116720582C70.68985176269531,106.00289416720581,70.26700176269532,104.94136016720581,69.27422176269532,105.40393816720581Z" fill="#FFFFFF" fill-opacity="1"/></g><g style="mix-blend-mode:passthrough"><path d="M69.36280460462093,104.8639558021164C69.36280460462093,104.8639558021164,68.87309460462093,106.48021580211639,68.05413860462093,107.1602558021164C67.90037460462094,107.28926580211639,67.78505160462093,107.4661858021164,67.71652660462094,107.6670658021164C67.57446190462093,108.08541580211639,67.48253760462093,108.7415058021164,68.12600660462094,109.07507580211639C68.12600660462094,109.07507580211639,69.71211460462094,109.98732580211639,70.50098460462094,107.32428580211639C70.50098460462094,107.32428580211639,70.73498460462093,106.2922358021164,71.21131460462094,105.8996858021164L71.33666460462094,104.8031390021164C71.33666460462094,104.8031390021164,71.08094460462094,105.35049280211639,70.77843460462094,105.46475480211639C70.78010460462093,105.46475480211639,70.35558460462093,104.4032208021164,69.36280460462093,104.8639558021164Z" fill="#534741" fill-opacity="1"/></g></g></g><g style="mix-blend-mode:passthrough"><g><g style="mix-blend-mode:passthrough"><path d="M53.672152042388916,78.62058888317871L54.79864204238891,77.8981548831787C55.29503204238892,77.57932588317871,55.98363204238892,77.62355628317871,56.744092042388914,78.10824988317871L55.61760204238892,78.83068588317872C54.857142042388915,78.34783288317871,54.16854304238892,78.3017598831787,53.672152042388916,78.62058888317871Z" fill="#414141" fill-opacity="1"/></g><g style="mix-blend-mode:passthrough"><path d="M55.61760336596966,78.83068235315704C57.12683336596966,79.79269835315705,58.34692336596966,82.12216835315704,58.34189336596966,84.03513835315704C58.336883365969655,85.94811835315704,57.108443365969656,86.72030835315704,55.59922336596966,85.75829835315704C54.08999336596966,84.79627835315705,52.86990471596966,82.46680835315705,52.87491876496966,80.55382835315704C52.87993281596966,78.64085935315704,54.10670336596966,77.87051035315704,55.61760336596966,78.83068235315704Z" fill="#F2F2F2" fill-opacity="1"/></g><g style="mix-blend-mode:passthrough"><path d="M55.2148011428833,79.46649903700256C56.5786211428833,80.33452503700256,57.6800511428833,82.43916503700257,57.6750311428833,84.16599503700256C57.6700111428833,85.89283503700257,56.561911142883304,86.58946503700257,55.1980911428833,85.72328503700257C53.8342711428833,84.85525503700256,52.7328541528833,82.75061503700256,52.7378681943833,81.02378503700257C52.742882232883304,79.29510503700256,53.8526611428833,78.59847403700256,55.2148011428833,79.46649903700256Z" fill="#E6E6E6" fill-opacity="1"/></g><g style="mix-blend-mode:passthrough"><path d="M58.671162348327634,85.2478025207138L57.54467234832764,85.97024252071381C58.03604234832763,85.65509252071381,58.34023234832764,84.9879525207138,58.341902348327636,84.03699252071381C58.346912348327635,82.12402252071381,57.12683234832764,79.7945425207138,55.61760234832764,78.8325245207138L56.744092348327634,78.1100925207138C58.253322348327636,79.0721065207138,59.473412348327635,81.4015825207138,59.46839234832764,83.3145525207138C59.46505234832764,84.26367252071381,59.16086234832764,84.9326525207138,58.671162348327634,85.2478025207138Z" fill="#414141" fill-opacity="1"/></g></g></g><g style="mix-blend-mode:passthrough"><path d="M81.12574693908691,78.29974510803223C81.12574693908691,78.29974510803223,82.38764693908692,81.93776510803222,79.86384693908691,84.61374510803222L73.90880693908692,92.59929510803222L71.73603693908692,104.39429510803222C70.92542693908692,104.67629510803224,70.04628993908692,104.43299510803223,69.29584693908691,103.97589510803223L70.86692693908691,91.57279510803222L74.23472693908691,81.72397510803222L75.12054693908692,77.12209510803223L81.12574693908691,78.29974510803223Z" fill="#351B03" fill-opacity="1"/></g><g style="mix-blend-mode:passthrough"><path d="M70.86200423937989,81.99849128723145L74.56576723937988,83.61477128723145C75.18583723937988,83.88569128723145,75.13736723937988,84.86799128723145,74.49555723937988,85.06519128723144C73.80194723937988,85.27898128723145,72.50997723937988,85.13338128723144,70.10821723937988,83.93177128723144L70.86200423937989,81.99849128723145Z" fill="#414141" fill-opacity="1"/></g><g style="mix-blend-mode:passthrough"><path d="M74.0876187286377,81.41982815588379L73.95557872863769,81.64282415588379L73.6513887286377,81.25396115588379L73.4558387286377,81.5875371558838L73.3739487286377,81.48248915588378L73.6513887286377,81.25396115588379L73.1533187286377,80.59049415588379L72.8658487286377,81.40324115588379L71.3866917286377,82.30998415588378C71.28139572863769,82.3873841558838,71.2061847286377,82.50717415588379,71.1794427286377,82.64539415588379L70.92873798863769,83.90967415588379C70.90199612863769,84.04052415588379,70.96885072863769,84.17321415588378,71.08417472863769,84.21929415588379C71.20117072863769,84.26536415588379,71.3248517286377,84.2045441558838,71.3800057286377,84.08659415588379L71.3783347286377,84.09581415588379C71.3515927286377,84.22666415588378,71.4184477286377,84.35935415588379,71.53377172863769,84.4054341558838C71.6607957286377,84.45519415588379,71.8028617286377,84.3814741558838,71.84631672863769,84.23956415588378L71.9031437286377,84.0571141558838L71.88308672863769,84.1584741558838C71.8563447286377,84.28932415588379,71.9231987286377,84.42202415588379,72.0385287286377,84.46809415588379C72.1655487286377,84.51785415588378,72.30760872863769,84.44413415588379,72.3510687286377,84.30222415588379L72.5065087286377,83.80278415588378L72.4446687286377,84.11792415588378C72.4195987286377,84.23956415588378,72.4814387286377,84.36304415588378,72.5883987286377,84.4054341558838C72.7070687286377,84.45334415588378,72.8374387286377,84.3833141558838,72.8792187286377,84.25246415588379L73.2485887286377,83.06559415588379L74.51046872863769,81.9616641558838L74.0876187286377,81.41982815588379Z" fill="#EFC2BF" fill-opacity="1"/></g><g style="mix-blend-mode:passthrough"><path d="M53.15396301513672,69.41676483703613L51.06810301513672,66.66707383703613C50.65026701513672,66.11602883703613,49.841329375136716,66.44407543703613,49.83965802335672,67.16098583703614C49.83798666513672,68.01796483703613,50.25415501513672,69.31724483703613,51.821893015136716,71.17863483703613L53.15396301513672,69.41676483703613Z" fill="#414141" fill-opacity="1"/></g><g style="mix-blend-mode:passthrough"><g><g style="mix-blend-mode:passthrough"><path d="M69.27757162475586,54.463210498263C69.27757162475586,54.463210498263,68.00566162475586,54.326831549263,67.28030162475586,58.152806549263C66.55493162475585,61.980626549263,64.88357162475586,67.21280654926301,64.88357162475586,67.21280654926301C64.88357162475586,67.21280654926301,66.36439162475585,71.645106549263,67.39060162475586,69.131306549263L69.97953162475586,60.987276549263C69.97953162475586,60.989116549263,71.36676162475585,55.027154549263,69.27757162475586,54.463210498263Z" fill="#F2F2F2" fill-opacity="1"/></g><g style="mix-blend-mode:passthrough"><path d="M69.12549209594727,55.5800741364212C69.12549209594727,55.5800741364212,71.70106209594726,69.7229521364212,71.35509209594727,74.76905213642121C71.35509209594727,74.76905213642121,74.61090209594727,80.1228521364212,81.26459209594726,78.8235521364212C81.26459209594726,78.8235521364212,81.45179209594727,63.7444021364212,79.85899209594726,59.999502136421206C79.85899209594726,59.999502136421206,74.39530209594727,55.274142136421204,71.96848209594727,55.043772136421204C71.96848209594727,55.045615136421205,69.12549209594727,53.8218881364212,69.12549209594727,55.5800741364212Z" fill="#D14434" fill-opacity="1"/></g><g style="mix-blend-mode:passthrough"><path d="M75.00525802825928,57.16121791596222C75.00525802825928,57.16121791596222,77.58748802825927,57.52243391596222,76.02143802825928,60.87105991596222C74.05926802825928,65.06743991596223,73.32220802825928,68.33496991596222,73.32220802825928,68.33496991596222L72.10546612825928,57.67355991596222C72.10546612825928,57.67355991596222,71.63916002825928,55.53942991596222,75.00525802825928,57.16121791596222Z" fill="#E6E6E6" fill-opacity="1"/></g><g style="mix-blend-mode:passthrough"><path d="M72.32441186904907,57.57955051013946L72.71884986904907,58.974660510139465C72.71884986904907,58.974660510139465,74.93673186904907,59.840840510139465,75.65039186904907,58.379390510139466L75.65039186904907,55.091580510139465L72.32441186904907,57.57955051013946Z" fill="#E9BCBB" fill-opacity="1"/></g><g style="mix-blend-mode:passthrough"><g><g style="mix-blend-mode:passthrough"><path d="M70.55450557451248,47.76038002234459C70.55450557451248,47.76038002234459,68.92160157451248,48.59523502234459,69.08205017451249,51.86092502234459L69.12550517451248,53.85867502234459L69.18567357451248,55.69424502234459C69.22912857451249,56.72260502234459,70.48430557451248,58.31859502234459,71.41859557451248,58.35549502234459L71.96846557451248,58.37759502234459C73.52949557451248,58.12689502234459,75.30614557451248,56.61202502234459,76.48778557451249,54.31940502234459C76.48778557451249,54.31940502234459,77.14629557451248,47.77696702234459,73.41250557451248,47.55397082234459C73.40916557451249,47.55397082234459,71.97849557451248,47.33650402234459,70.55450557451248,47.76038002234459Z" fill="#EFC2BF" fill-opacity="1"/></g><g style="mix-blend-mode:passthrough"><path d="M76.67497228817344,51.601072987556456C76.63654228817344,50.83256298755646,76.39753228817344,50.09170298755646,76.09335228817343,49.398752987556456C75.98136228817344,49.144432987556456,75.85936228817344,48.891942987556455,75.68888228817343,48.678162987556455C75.51172228817343,48.45701298755646,75.28775228817344,48.28562298755646,75.06212228817344,48.12343998755646C74.62424228817343,47.80645398755646,74.16963228817343,47.506053987556456,73.67324228817344,47.31807398755646C73.32727228817343,47.18722548755646,72.94620228817344,47.10613608755646,72.57851228817344,47.13562312755646C72.30775228817343,47.157738387556456,72.13393228817344,47.29595898755646,71.88824228817344,47.39179198755646C71.19797228817343,47.662703987556455,70.29712228817344,47.62584598755646,69.57175528817343,47.63690298755646C69.38957828817344,47.638745987556455,69.49153028817344,47.99074798755646,69.39626328817344,48.16214298755646C69.39626328817344,48.16214298755646,68.91992928817344,48.18057298755646,68.87981728817344,48.65420298755646L68.87981728817344,48.65420298755646C68.87981728817344,48.65420298755646,68.30988828817344,50.95788298755646,69.40462028817343,51.05740298755646C69.40462028817343,51.05740298755646,70.93724228817344,51.40203298755646,72.25092228817344,50.921022987556455C72.46318228817344,50.84362298755646,72.69884228817344,50.85836298755646,72.89773228817344,50.97263298755646C73.02642228817344,51.04818298755646,73.15010228817344,51.13296298755645,73.26376228817344,51.23617298755646C73.51112228817344,51.459162987556454,73.70833228817344,51.76509298755646,73.76516228817344,52.111562987556454C73.81530228817344,52.41933298755646,73.75680228817343,52.74369298755646,73.83870228817344,53.04225298755646C73.91558228817344,53.320532987556454,74.11280228817344,53.536152987556456,74.34345228817344,53.68175298755646C75.15572228817344,55.61684298755646,75.76075228817344,55.524692987556456,75.76075228817344,55.524692987556456C76.67832228817343,54.88703298755646,76.73849228817343,52.75659298755646,76.67497228817344,51.601072987556456Z" fill="#523C22" fill-opacity="1"/></g><g style="mix-blend-mode:passthrough"><path d="M68.73441025228882,50.46213492995453C68.73441025228882,50.46213492995453,68.53050575228882,51.97518792995453,69.09709275228882,52.58888792995453C69.09709275228882,52.58888792995453,72.33449375228882,53.12702792995453,74.41699375228882,51.527357929954526L72.61026375228882,50.11934792995453L68.73441025228882,50.46213492995453Z" fill="#523C22" fill-opacity="1"/></g></g></g><g style="mix-blend-mode:passthrough"><path d="M75.05706238464356,55.091580510139465C75.05706238464356,55.091580510139465,73.80355238464355,57.97026051013947,71.08427238464355,58.28540051013947C71.08427238464355,58.28540051013947,73.24532238464356,59.33035051013947,75.55847238464355,55.80664251013947L75.05706238464356,55.091580510139465Z" fill="#4E4E4E" fill-opacity="1"/></g><g style="mix-blend-mode:passthrough"><path d="M68.18615436553955,50.4289451240921C68.18615436553955,50.4289451240921,68.65413236553955,45.3958631240921,74.06763436553955,45.814211224092105C74.06763436553955,45.814211224092105,79.30565436553955,47.0397651240921,77.98861436553955,53.0422351240921C77.98861436553955,53.0422351240921,77.22814436553955,55.6887051240921,75.88104436553955,55.8822051240921C75.88104436553955,55.8822051240921,74.50552436553956,55.8490051240921,75.29607436553955,53.9784551240921C75.29607436553955,53.9784551240921,75.61864436553955,53.2689251240921,74.15454436553955,52.9464051240921C74.15621436553955,52.9445651240921,70.46921436553956,53.1712451240921,68.18615436553955,50.4289451240921Z" fill="#D14434" fill-opacity="1"/></g><g style="mix-blend-mode:passthrough"><path d="M80.71967594329834,60.6463096763382C81.60550594329834,63.2522536763382,81.86456594329835,69.5754436763382,81.91804594329834,73.9505836763382C81.91804594329834,73.9505836763382,79.51128594329833,78.5948836763382,73.88215594329834,82.8207836763382C73.88215594329834,82.8207836763382,72.90608694329833,82.2955836763382,72.10550594329834,81.1897836763382C72.10550594329834,81.1897836763382,78.49343594329834,74.47768367633819,78.71906594329835,72.1555836763382L78.16083594329834,65.0749436763382C78.03381594329834,63.4641936763382,77.83659594329833,61.315303676338196,78.82101594329833,60.351436676338196L78.82101594329833,60.351436676338196C79.31407594329833,59.7801186763382,80.49906594329835,59.9975882763382,80.71967594329834,60.6463096763382Z" fill="#F2F2F2" fill-opacity="1"/></g><g style="mix-blend-mode:passthrough"><path d="M70.17171767711793,57.62747299671173C70.17171767711793,57.62747299671173,71.24137857711791,57.70487669671173,71.85476857711792,58.290931996711734L71.85476857711792,58.42915399671173C71.85476857711792,58.42915399671173,70.64470857711792,58.65399299671173,70.12324857711792,57.76569399671173L70.17171767711793,57.62747299671173Z" fill="#4E4E4E" fill-opacity="1"/></g></g></g><g style="mix-blend-mode:passthrough"><g><g style="mix-blend-mode:passthrough"><path d="M102.10940932128906,49.49278321699394L102.09102432128907,62.49289732699394C102.09102432128907,62.56849732699394,102.04589832128906,62.642197326993944,101.95731732128907,62.69929732699394C101.77681032128906,62.815397326993946,101.48265332128906,62.815397326993946,101.30047632128907,62.69929732699394C101.21022402128906,62.642197326993944,101.16342622128906,62.56479732699394,101.16509757158906,62.489197326993946L101.18348242128906,49.48909732699394C101.18348242128906,49.564657926993945,101.22860882128906,49.64206132699394,101.31886132128906,49.699192326993945C101.50103832128906,49.81529832699394,101.79519532128906,49.81529832699394,101.97570132128907,49.699192326993945C102.06428332128907,49.64390432699394,102.10940932128906,49.56834382699394,102.10940932128906,49.49278321699394Z" fill="#E5EBFB" fill-opacity="1"/></g><g style="mix-blend-mode:passthrough"><path d="M101.97084544615835,49.28268771587524C102.15302144615835,49.398792615875244,102.15469244615835,49.584930615875244,101.97418744615835,49.70103561587524C101.79368144615835,49.817141615875244,101.49952444615835,49.817141615875244,101.31734744615835,49.70103561587524C101.13517084615835,49.584930615875244,101.13517084615835,49.398792615875244,101.31567644615835,49.28268771587524C101.49785344615835,49.166582215875245,101.79033844615834,49.166582215875245,101.97084544615835,49.28268771587524Z" fill="#E7DBD0" fill-opacity="1"/></g></g></g><g style="mix-blend-mode:passthrough"><path d="M66.95263005218506,65.04717972839356L60.98422005218506,58.749799728393555C60.09673005218506,59.40773472839356,59.49838305218506,60.141229728393554,59.07553005218506,60.922639728393555C59.07553005218506,60.922639728393555,64.62610005218505,68.15440972839356,66.22726005218506,69.70429972839355L66.95263005218506,65.04717972839356Z" fill="#F2F2F2" fill-opacity="1"/></g><g style="mix-blend-mode:passthrough"><g><g style="mix-blend-mode:passthrough"><g><g style="mix-blend-mode:passthrough"><path d="M66.90786332154572,55.35709453094482L55.250063321545724,62.82661453094482L43.51706332154572,55.35709453094482L55.17486332154572,47.885714530944824L66.90786332154572,55.35709453094482Z" fill="#D14434" fill-opacity="1"/></g><g style="mix-blend-mode:passthrough"><path d="M66.9057321899414,55.35700559616089L66.90073218994141,57.749145596160886L55.241432189941406,65.2185955961609L55.24811758994141,62.82645559616089L66.9057321899414,55.35700559616089Z" fill="#DA695D" fill-opacity="1"/></g><g style="mix-blend-mode:passthrough"><path d="M55.24815636596679,62.82645559616089L55.2414563659668,65.2185955961609L43.5085563659668,57.749145596160886L43.5152417659668,55.35700559616089L55.24815636596679,62.82645559616089Z" fill="#E38F85" fill-opacity="1"/></g></g></g><g style="mix-blend-mode:passthrough"><g><g style="mix-blend-mode:passthrough"><path d="M57.974156612854,51.77069803639221L50.020213612854,56.86644003639221L49.739426612854004,56.68767003639221L57.691706612854006,51.59009003639221L57.974156612854,51.77069803639221Z" fill="#F2F2F2" fill-opacity="1"/></g><g style="mix-blend-mode:passthrough"><path d="M54.95570717338562,57.146560169906614L54.56794717338562,57.39536016990662L52.44366717338562,56.04263716990662L52.83309117338562,55.793840169906616L54.95570717338562,57.146560169906614Z" fill="#F2F2F2" fill-opacity="1"/></g><g style="mix-blend-mode:passthrough"><g><g style="mix-blend-mode:passthrough"><path d="M59.44003056898117,53.47912030871964L60.25733056898117,53.74634930871964L60.66681056898117,53.48464930871963L57.83554056898117,52.581609308719635L57.45113056898117,52.826720308719636L58.865090568981174,54.63648930871963L59.26621056898117,54.380319308719635L58.84671056898117,53.85876930871964L59.44003056898117,53.47912030871964ZM59.02055056898117,53.33903130871963L58.62778056898117,53.59150930871964L58.29685256898117,53.19159630871963L58.18654356898117,53.05890430871963L58.40548956898117,53.13262230871963L59.02055056898117,53.33903130871963Z" fill-rule="evenodd" fill="#F2F2F2" fill-opacity="1"/></g><g style="mix-blend-mode:passthrough"><path d="M58.68449947813034,54.75811908302307L57.13682947813034,55.74962908302307L56.86272947813034,55.57454908302307L56.40310947813034,54.006203083023074L56.39809947813034,53.98961608302307L56.39474947813034,53.96750108302307C56.39307947813034,53.95828608302307,56.39307947813034,53.94538508302307,56.39307947813034,53.93064208302307L56.20922947813034,54.04859008302307L55.43038247813034,54.548029083023074L55.10446947813034,54.33977408302307L56.53012947813034,53.42751908302307L56.800889478130344,53.59891308302307L57.27053947813034,55.24281908302307C57.302299478130344,55.22253908302307,57.32736947813034,55.205959083023075,57.34908947813034,55.19121908302307C57.37081947813034,55.17646908302307,57.38920947813034,55.16540908302307,57.40424947813034,55.15619908302307C57.42095947813034,55.14513908302307,57.43432947813034,55.13776908302307,57.44435947813034,55.13039908302307C57.45605947813034,55.12302908302307,57.46441947813034,55.11749908302307,57.47443947813034,55.11196908302307L58.35523947813034,54.54618908302307L58.68449947813034,54.75811908302307Z" fill="#F2F2F2" fill-opacity="1"/></g><g style="mix-blend-mode:passthrough"><path d="M56.8911387679863,55.90811065954208L55.343468767986295,56.89962065954208L55.0693687679863,56.724540659542086L54.6097487679863,55.15619665954208L54.6047387679863,55.139610659542086L54.6013887679863,55.11749465954208C54.599718767986296,55.10828065954208,54.599718767986296,55.09722265954208,54.599718767986296,55.08063665954209L54.4158687679863,55.198584659542085L53.6370217679863,55.69802065954208L53.3111087679863,55.489769659542084L54.7367687679863,54.575670659542084L55.0075287679863,54.747063659542086L55.477178767986295,56.390970659542084C55.5089387679863,56.370690659542085,55.5340087679863,56.35411065954209,55.555728767986295,56.33936065954208C55.5774587679863,56.324620659542084,55.5958487679863,56.313560659542084,55.610888767986296,56.30435065954208C55.6275987679863,56.29329065954208,55.640968767986294,56.285920659542086,55.650998767986295,56.278550659542084C55.6626987679863,56.271170659542086,55.671058767986295,56.26565065954208,55.6810787679863,56.26012065954208L56.5618787679863,55.69433065954208L56.8911387679863,55.90811065954208Z" fill="#F2F2F2" fill-opacity="1"/></g><g style="mix-blend-mode:passthrough"><path d="M53.107206140880585,58.33164947633743L52.27654614088058,57.80272947633743L52.66429614088059,57.55392947633743C52.76624614088058,57.48942747633743,52.839786140880584,57.42861047633743,52.888256140880586,57.37147847633743C52.93840614088059,57.314348476337436,52.968486140880586,57.259059476337434,52.98185614088059,57.201928476337436C52.998566140880584,57.11346747633743,52.98185614088059,57.028691476337436,52.93171614088058,56.94576047633743C52.88324614088059,56.86282747633743,52.79800614088059,56.78173847633743,52.67766614088058,56.70617747633743C52.56401614088058,56.634303476337436,52.44702614088058,56.58270067633743,52.32835614088059,56.551370676337434C52.20801614088059,56.520040646337435,52.072646140880586,56.50898299633743,51.92054614088058,56.52188359633743C51.83196614088058,56.53294127633743,51.741716140880584,56.555056576337435,51.65145614088058,56.58822947633743C51.559537140880586,56.62140247633743,51.460927140880585,56.67300447633743,51.35563214088059,56.739350476337435L50.591826140880585,57.22957247633743L52.71610614088058,58.582289476337436L53.107206140880585,58.33164947633743ZM52.31830614088059,57.373314476337434L51.96063614088059,57.60183947633743L51.308806140880584,57.18902047633743L51.63304614088059,56.980767476337434C51.67148614088058,56.95680947633743,51.70324614088059,56.938380476337436,51.72831614088059,56.923636476337435C51.75505614088058,56.90889347633743,51.77678614088058,56.89599247633743,51.800186140880584,56.88677847633743C51.821906140880586,56.87940647633743,51.84530614088059,56.873877476337434,51.86536614088058,56.86834847633743C51.88542614088058,56.862819476337435,51.912166140880586,56.85729047633743,51.94391614088058,56.853605476337435C51.98235614088058,56.851762476337434,52.03249614088058,56.85913347633743,52.09935614088059,56.877563476337436C52.164536140880585,56.89414947633743,52.22637614088058,56.921793476337434,52.28320614088059,56.958652476337434C52.416906140880585,57.043427476337435,52.48376614088058,57.117145476337434,52.48543614088059,57.17611947633743C52.487106140880584,57.23509347633743,52.43028614088058,57.301439476337436,52.31830614088059,57.373314476337434Z" fill-rule="evenodd" fill="#F2F2F2" fill-opacity="1"/></g><g style="mix-blend-mode:passthrough"><path d="M61.51742809484482,54.0246318589592L53.563485094844815,59.1222168589592L53.28269809484482,58.9434468589592L61.23497809484482,53.8458668589592L61.51742809484482,54.0246318589592Z" fill="#F2F2F2" fill-opacity="1"/></g></g></g></g></g></g></g><g style="mix-blend-mode:passthrough"><path d="M75.3677921295166,65.50799942016602L77.8414121295166,66.82939942016601L77.8364021295166,68.78293942016602L76.3739521295166,68.78293942016602L75.3677921295166,67.81169942016602L75.3677921295166,65.50799942016602Z" fill="#DA695D" fill-opacity="1"/></g></g></g><g style="mix-blend-mode:passthrough"><g><g style="mix-blend-mode:passthrough"><path d="M121.22783486328125,26.92218114868164C121.22950486328125,26.71393114868164,121.20611486328124,26.505681148681642,121.15931486328125,26.301111148681642C121.11418486328125,26.09654114868164,121.04900486328125,25.90488114868164,120.96710486328125,25.72242714868164C120.88521486328125,25.54550414868164,120.78660486328126,25.38516814868164,120.67127486328125,25.24141814868164C120.55595486328124,25.09766914868164,120.42893486328126,24.97972114868164,120.28854286328125,24.891260148681642C120.14480686328125,24.80095544868164,120.01109886328125,24.75119602868164,119.89243286328124,24.74382425868164C119.77376786328125,24.73645248868164,119.67014386328125,24.76778254868164,119.58490486328125,24.83781434868164C119.50133786328125,24.90968914868164,119.43448386328124,25.01658014868164,119.38768636328125,25.164015148681642C119.34088866328125,25.30960814868164,119.31581849258124,25.48653014868164,119.31581849258124,25.69846814868164C119.31414714328125,25.914091148681642,119.33754596328124,26.12419114868164,119.38434376328125,26.32876114868164C119.42946986328126,26.53332114868164,119.49632386328125,26.724991148681642,119.57989086328125,26.90375114868164C119.66345886328125,27.08436114868164,119.76541086328125,27.24654114868164,119.88073286328125,27.38844114868164C119.99605686328125,27.53220114868164,120.12642186328125,27.64830114868164,120.26848486328124,27.738601148681642C120.27349986328124,27.744141148681642,120.28018486328125,27.74782114868164,120.28686986328125,27.75151114868164C120.42057486328125,27.836281148681643,120.54258486328125,27.88051114868164,120.65456486328125,27.88420114868164C120.77156486328126,27.88788114868164,120.87017486328125,27.85287114868164,120.95540486328125,27.78099114868164C121.04064486328124,27.70912114868164,121.10582486328126,27.60038114868164,121.15262486328125,27.45295114868164C121.20109486328126,27.30920114868164,121.22616486328126,27.132281148681642,121.22783486328125,26.92218114868164ZM120.88354486328124,26.69732114868164C120.88354486328124,27.01246114868164,120.82671486328125,27.22624114868164,120.71640486328126,27.334981148681642C120.60442486328125,27.441871148681642,120.45567486328125,27.43818114868164,120.26848786328125,27.31839114868164C120.17656486328124,27.25942114868164,120.09299686328124,27.18386114868164,120.01778686328124,27.08987114868164C119.94257586328125,26.99588114868164,119.87739386328126,26.88899114868164,119.82558186328124,26.76735114868164C119.77209886328124,26.64572114868164,119.73031486328125,26.514871148681642,119.70190186328125,26.37112114868164C119.67348886328125,26.22737114868164,119.65844686328126,26.07809114868164,119.65844686328126,25.91960114868164C119.65844686328126,25.60629914868164,119.71527286328126,25.39436114868164,119.82558186328124,25.28378514868164C119.93589086328124,25.173208148681642,120.08798286328125,25.180580148681642,120.28185886328124,25.30405714868164C120.37044486328125,25.35934514868164,120.45233486328125,25.436749148681642,120.52587486328125,25.53258214868164C120.60108486328124,25.63025814868164,120.66459486328125,25.73899114868164,120.71807486328125,25.86062114868164C120.76989486328125,25.98226114868164,120.81167486328125,26.11311114868164,120.84008486328125,26.25686114868164C120.87017486328125,26.39876114868164,120.88354486328124,26.54436114868164,120.88354486328124,26.69732114868164Z" fill-rule="evenodd" fill="#99CE3D" fill-opacity="1"/></g><g style="mix-blend-mode:passthrough"><path d="M123.14991257583618,29.49679220945358L123.06802257583618,29.310652209453583C123.05130257583617,29.281162209453584,123.03961257583619,29.235092209453583,123.02958257583619,29.172432209453582C123.02122257583618,29.113452209453584,123.01286257583618,29.021312209453583,123.00618257583618,28.90152220945358C123.00116257583618,28.827802209453584,122.99949257583619,28.770672209453583,122.99615257583618,28.72828220945358C122.99615257583618,28.685892209453584,122.99448257583619,28.654562209453584,122.99281257583618,28.632442209453583C122.98947257583617,28.606642209453582,122.98947257583617,28.59006220945358,122.98947257583617,28.577162209453583L122.98947257583617,28.540302209453582C122.98445257583619,28.470272209453583,122.97609257583618,28.409452209453583,122.96272257583618,28.35601220945358C122.94935257583619,28.304402209453585,122.93264257583618,28.249112209453582,122.91258257583618,28.191982209453585C122.90088257583618,28.158812209453583,122.88584257583618,28.123792209453583,122.86579257583618,28.085092209453585C122.84573257583618,28.046392209453582,122.82066257583618,27.99847220945358,122.79058257583618,27.941342209453584C122.87080257583618,27.919232209453583,122.93264257583618,27.869472209453583,122.97442257583619,27.788382209453584C123.01454257583619,27.709132209453582,123.03626257583618,27.602242209453582,123.03626257583618,27.471392209453583C123.03793257583618,27.338702209453583,123.01621257583618,27.206012209453583,122.97442257583619,27.067792209453582C122.93097257583618,26.927722209453584,122.86913257583618,26.80056220945358,122.78556257583618,26.680772209453583C122.73542257583618,26.605213209453584,122.67859257583618,26.538866209453584,122.61675257583619,26.481735209453582C122.55324257583618,26.422761209453583,122.47803257583618,26.367473209453582,122.39279657583619,26.31218520945358L121.47522795583617,25.727972209453583L121.46854257583618,28.426042209453584L121.80949757583618,28.643502209453583L121.81284057583618,27.511942209453583L122.26410357583619,27.799442209453584C122.34599857583618,27.852882209453583,122.40951057583618,27.900802209453584,122.46132257583618,27.950562209453583C122.51313257583618,27.99847220945358,122.55324257583618,28.053762209453584,122.58166257583618,28.112742209453582C122.61174257583617,28.173552209453582,122.63347257583618,28.245432209453583,122.64517257583618,28.32467220945358C122.65687257583618,28.407612209453582,122.66690257583618,28.505282209453583,122.67191257583619,28.623232209453583C122.67525257583618,28.713532209453582,122.67692257583619,28.78357220945358,122.67859257583618,28.831482209453583C122.68027257583618,28.879402209453584,122.68361257583618,28.919942209453584,122.68695257583619,28.949432209453583C122.68862257583618,28.978922209453582,122.68862257583618,28.999192209453582,122.69197257583617,29.017622209453585C122.69364257583618,29.034202209453582,122.69698257583619,29.05448220945358,122.70199257583619,29.076592209453583L122.71369257583618,29.118982209453584L122.72539257583618,29.159532209453584L122.73709257583619,29.200072209453584L122.75548257583618,29.246142209453584L123.14991257583618,29.49679220945358ZM122.69696257583618,27.285242209453582C122.69529257583618,27.36080220945358,122.68693257583618,27.421622209453584,122.67356257583619,27.46216220945358C122.66019257583618,27.504552209453582,122.63512257583618,27.528512209453584,122.60002257583618,27.53957220945358C122.56659257583618,27.546942209453583,122.51980257583618,27.537722209453584,122.46130157583619,27.515612209453582C122.40447557583619,27.491652209453584,122.33260757583618,27.45295220945358,122.24569757583618,27.397662209453582L121.81448957583618,27.123062209453582L121.81616157583618,26.354559209453583L122.30920857583618,26.66785920945358C122.45461557583619,26.76000220945358,122.55489257583618,26.852152209453582,122.61172257583618,26.944302209453582C122.66854257583618,27.038292209453584,122.69696257583618,27.15255220945358,122.69696257583618,27.285242209453582Z" fill-rule="evenodd" fill="#99CE3D" fill-opacity="1"/></g><g style="mix-blend-mode:passthrough"><path d="M125.02853622650146,29.283029867324828C125.02853622650146,29.06187986732483,125.00346622650146,28.84808986732483,124.95499622650146,28.63983986732483C124.90485622650147,28.43342986732483,124.83298622650146,28.24176986732483,124.73437622650147,28.06668986732483C124.65248622650147,27.913721867324828,124.56055622650146,27.78840186732483,124.46194622650147,27.68704086732483C124.36166822650146,27.58567786732483,124.24133222650147,27.48984486732483,124.09759622650147,27.39769786732483L123.37223160650146,26.93511986732483L123.36554622650146,29.63318986732483L124.12099422650147,30.11418986732483C124.26640122650147,30.20633986732483,124.38673622650147,30.26346986732483,124.47866622650146,30.281899867324828C124.57392622650147,30.302169867324828,124.66083622650146,30.27821986732483,124.74106622650146,30.210029867324828C124.83465622650147,30.13998986732483,124.90652622650147,30.025729867324827,124.95499622650146,29.869079867324828C125.00346622650146,29.71427986732483,125.02853622650146,29.517079867324828,125.02853622650146,29.283029867324828ZM124.67924622650146,29.100599867324828C124.67924622650146,29.27751986732483,124.66587622650147,29.41757986732483,124.63913622650146,29.52262986732483C124.61406622650146,29.62767986732483,124.57395622650147,29.70876986732483,124.52047622650146,29.76589986732483C124.47033622650146,29.80828986732483,124.41350622650147,29.82486986732483,124.35333722650147,29.813819867324828C124.29316922650146,29.80459986732483,124.19790222650147,29.758529867324828,124.07255122650146,29.67927986732483L123.70819722650147,29.447069867324828L123.71321122650147,27.55621386732483L124.10263522650146,27.805010867324828C124.29985422650147,27.93033086732483,124.44693622650146,28.09987986732483,124.54052622650147,28.31181986732483C124.63412622650146,28.52375986732483,124.67924622650146,28.78729986732483,124.67924622650146,29.100599867324828Z" fill-rule="evenodd" fill="#99CE3D" fill-opacity="1"/></g><g style="mix-blend-mode:passthrough"><path d="M126.67977586288453,29.041565386016845L126.67977586288453,29.448852386016846L125.61345186288452,28.770654386016847L125.61178086288452,29.478342386016845L126.60623586288452,30.110472386016845L126.60623586288452,30.503022386016845L125.61010886288452,29.870892386016845L125.60843786288453,30.652302386016846L126.68979586288452,31.341552386016847L126.68812586288452,31.748852386016846L125.27082586288452,30.845802386016846L125.27751125288452,28.149582386016846L126.67977586288453,29.041565386016845Z" fill="#99CE3D" fill-opacity="1"/></g><g style="mix-blend-mode:passthrough"><path d="M128.59857855529785,32.96341546508789L128.51668855529786,32.77912546508789C128.49996855529784,32.74963546508789,128.48826855529785,32.70356546508789,128.47824855529785,32.64090546508789C128.46988855529784,32.58193546508789,128.46152855529786,32.48978546508789,128.45484855529784,32.36999546508789C128.44982855529784,32.29627546508789,128.44648855529786,32.23730546508789,128.44481855529784,32.19675546508789C128.44314855529785,32.15621546508789,128.44314855529785,32.12303546508789,128.43980855529784,32.10092546508789C128.43812855529785,32.07512546508789,128.43812855529785,32.05853546508789,128.43812855529785,32.04563546508789L128.43812855529785,32.00877546508789C128.43311855529785,31.93874546508789,128.42308855529785,31.87792546508789,128.41138855529786,31.82447546508789C128.39968855529784,31.772875465087893,128.38130855529786,31.715745465087892,128.36124855529786,31.65861546508789C128.35121855529786,31.62544546508789,128.33617855529786,31.59042546508789,128.31612855529787,31.55172546508789C128.29606855529786,31.513025465087892,128.27099855529787,31.46510546508789,128.24090855529786,31.40797546508789C128.32113855529786,31.38586546508789,128.38297855529785,31.33610546508789,128.42475855529784,31.25501546508789C128.46654855529786,31.17760546508789,128.48826855529785,31.07071546508789,128.48826855529785,30.93986546508789C128.48826855529785,30.80717546508789,128.46654855529786,30.67448546508789,128.42475855529784,30.53626546508789C128.38130855529786,30.396205465087892,128.31946855529785,30.26903546508789,128.23589855529787,30.14924646508789C128.18575855529784,30.073686465087892,128.12892855529785,30.00733946508789,128.06708855529786,29.95020846508789C128.00357855529785,29.89123446508789,127.92836855529785,29.83594646508789,127.84313255529786,29.78065846508789L126.92556393529784,29.19644546508789L126.91887855529785,31.894515465087892L127.25983355529785,32.11197546508789L127.26317555529785,30.98041546508789L127.71443855529785,31.267915465087892C127.79633455529785,31.32135546508789,127.85984655529785,31.36927546508789,127.91165755529785,31.41903546508789C127.96346855529785,31.466955465087892,128.00357855529785,31.522235465087892,128.03199855529786,31.58121546508789C128.06207855529786,31.64202546508789,128.08380855529785,31.71390546508789,128.09550855529784,31.793155465087892C128.10720855529786,31.874235465087892,128.11723855529786,31.97375546508789,128.12057855529784,32.08986546508789C128.12558855529784,32.18016546508789,128.12725855529786,32.25020546508789,128.12892855529785,32.29811546508789C128.13060855529784,32.346035465087894,128.13394855529785,32.38657546508789,128.13728855529786,32.41606546508789C128.13728855529786,32.44555546508789,128.13895855529785,32.46766546508789,128.14062855529784,32.48425546508789C128.14397855529785,32.50083546508789,128.14731855529786,32.52111546508789,128.15232855529786,32.54322546508789L128.16235855529786,32.58377546508789L128.17572855529784,32.626165465087894L128.18742855529786,32.666705465087894L128.20581855529784,32.71277546508789L128.59857855529785,32.96341546508789ZM128.14562855529786,30.751875465087892C128.14394855529784,30.82927546508789,128.13559855529786,30.890095465087892,128.12222855529785,30.93063546508789C128.10885855529784,30.97302546508789,128.08378855529784,30.996985465087892,128.05035855529786,31.00804546508789C128.01525855529786,31.01541546508789,127.97013855529785,31.00620546508789,127.91163655529785,30.98408546508789C127.85481055529785,30.96012546508789,127.78127155529785,30.92142546508789,127.69603355529784,30.86613546508789L127.26482555529785,30.59153546508789L127.26649755529785,29.82303246508789L127.75954355529785,30.13633246508789C127.90495055529784,30.22847546508789,128.00522855529786,30.32062546508789,128.06205855529785,30.41277546508789C128.11887855529784,30.50676546508789,128.14562855529786,30.61918546508789,128.14562855529786,30.751875465087892Z" fill-rule="evenodd" fill="#99CE3D" fill-opacity="1"/></g><g style="mix-blend-mode:passthrough"><path d="M130.5756819159546,31.442921710479737C130.68431791595458,31.511110710479738,130.7879379159546,31.599571710479736,130.88320791595459,31.708305710479735C130.9818179159546,31.818881710479737,131.0670579159546,31.934987710479735,131.1422679159546,32.06767971047974C131.2174779159546,32.19668471047974,131.2776479159546,32.33858871047973,131.32444791595458,32.48786871047974C131.3712379159546,32.637148710479735,131.3979879159546,32.788268710479734,131.40800791595458,32.94123871047974L131.0754179159546,32.72929871047974C131.0419879159546,32.522888710479734,130.9818179159546,32.34780871047974,130.89824791595458,32.200371710479736C130.8163579159546,32.05477871047974,130.7060479159546,31.940516710479738,130.5723389159546,31.853897710479735C130.38514791595458,31.735949710479737,130.2397409159546,31.730420710479738,130.13110291595459,31.842839710479737C130.0224659159546,31.955259710479737,129.9689829159546,32.170883710479735,129.96731091595458,32.49155871047974C129.96731091595458,32.804858710479735,130.0191229159546,33.086828710479736,130.12441791595458,33.33009871047974C130.2297129159546,33.575208710479735,130.37344891595458,33.753978710479736,130.5572969159546,33.87007871047974C130.7127279159546,33.96959871047974,130.83473791595458,33.98433871047973,130.9166379159546,33.91614871047974C131.00020791595458,33.84795871047974,131.05368791595458,33.69499871047974,131.07373791595458,33.455418710479734L131.4213779159546,33.676568710479735C131.3979879159546,34.02856871047974,131.3077279159546,34.25709871047974,131.1506279159546,34.36029871047974C130.9951879159546,34.46718871047974,130.79462791595458,34.441388710479735,130.5506109159546,34.284738710479736C130.4068749159546,34.192598710479736,130.27818091595458,34.07832871047974,130.1645299159546,33.93826871047973C130.0508789159546,33.800048710479736,129.9556119159546,33.64154871047974,129.8737159159546,33.468318710479736C129.7951629159546,33.293238710479734,129.7333229159546,33.10525871047974,129.6915390159546,32.90437871047973C129.6497554159546,32.70164871047974,129.6280279159546,32.49339871047974,129.6280279159546,32.27777471047973C129.6280279159546,32.063993710479735,129.65309811595458,31.883384710479735,129.6965531159546,31.734106710479736C129.74335091595458,31.586670710479737,129.80686191595458,31.476094710479735,129.88875791595459,31.404219710479737C129.9723259159546,31.330502010479737,130.0726059159546,31.295486100479735,130.1862579159546,31.299171987479735C130.3032519159546,31.304700820479738,130.4302739159546,31.350774410479737,130.5756819159546,31.442921710479737Z" fill="#99CE3D" fill-opacity="1"/></g><g style="mix-blend-mode:passthrough"><path d="M133.41880658477783,34.684788952331544C133.42047658477784,34.47468895233154,133.39707658477784,34.26827895233154,133.35194658477783,34.06371895233154C133.30515658477782,33.85730895233154,133.23996658477782,33.66563895233154,133.15807658477783,33.49055895233154C133.07784658477783,33.31547995233154,132.97756658477783,33.15330095233154,132.86224658477784,33.009550952331544C132.74859658477783,32.863958952331544,132.62157658477784,32.74785295233154,132.48117958477783,32.659391952331546C132.33577258477783,32.56540195233154,132.20373558477783,32.51748543233154,132.08507058477784,32.51011366233154C131.96640558477785,32.50274188233154,131.86278158477782,32.534071952331544,131.77587158477783,32.60226085233154C131.69230458477784,32.67413595233154,131.62545058477784,32.78102595233154,131.57865258477784,32.928461952331546C131.53185488477783,33.074053952331546,131.50845604527782,33.25281995233154,131.50845604527782,33.46475695233154C131.50678469477782,33.680378952331544,131.52851218477784,33.88863895233154,131.57530998477785,34.09319895233154Q131.64550658477782,34.400048952331545,131.77085758477784,34.668198952331544C131.85442458477783,34.848808952331545,131.95637658477784,35.010988952331545,132.07170058477783,35.152888952331544C132.18702258477782,35.29663895233154,132.31738758477783,35.41274895233154,132.45945158477784,35.50304895233154C132.46446658477782,35.50857895233154,132.47115258477783,35.512268952331546,132.47783658477783,35.51594895233154C132.61154658477784,35.600728952331544,132.73522658477782,35.64495895233154,132.84553658477782,35.648638952331545C132.96252658477783,35.652328952331544,133.06280658477783,35.617318952331544,133.14804658477783,35.545438952331544C133.23161658477784,35.47356895233154,133.29846658477783,35.36482895233154,133.34526658477785,35.21739895233154C133.39206658477784,35.071808952331544,133.41713658477784,34.894878952331545,133.41880658477783,34.684788952331544ZM133.07452658477783,34.458118952331546C133.07452658477783,34.773258952331545,133.01770658477784,34.987038952331545,132.90739658477784,35.09577895233154C132.79541658477783,35.20266895233154,132.64666658477782,35.198978952331544,132.45947358477784,35.07918895233154C132.36754858477784,35.02021895233154,132.28398158477782,34.942808952331546,132.20877058477782,34.850668952331546C132.13356058477783,34.75667895233154,132.06837758477783,34.64978895233154,132.01656558477782,34.52814895233154C131.96308258477782,34.406518952331545,131.92129858477784,34.27566895233154,131.89288558477784,34.131918952331546C131.86447358477784,33.98816895233154,131.84943058477782,33.838888952331544,131.84943058477782,33.680398952331544C131.84943058477782,33.367098952331546,131.90625658477782,33.155159952331545,132.01656558477782,33.04458395233154C132.12854658477784,32.935849952331544,132.27896758477783,32.94137895233154,132.47284358477782,33.06485595233154C132.56309658477784,33.12198695233154,132.64332658477784,33.19939095233154,132.71853658477784,33.29522395233154C132.79206658477784,33.391056952331546,132.85558658477783,33.49978995233154,132.90906658477783,33.62142895233154C132.96254658477784,33.744898952331546,133.00265658477784,33.87574895233154,133.03274658477784,34.019498952331546C133.06115658477782,34.159558952331544,133.07452658477783,34.305158952331546,133.07452658477783,34.458118952331546Z" fill-rule="evenodd" fill="#99CE3D" fill-opacity="1"/></g><g style="mix-blend-mode:passthrough"><path d="M135.659914876709,34.76024394927978L135.65323487670898,37.458313949279784L135.32230487670898,37.24822394927978L135.325644876709,36.04661394927979C135.32230487670898,35.97106394927979,135.320634876709,35.90471394927979,135.31896487670897,35.84573394927978C135.31729487670898,35.78860394927978,135.31896487670897,35.735153949279784,135.320634876709,35.68724394927978C135.320634876709,35.63564394927978,135.32230487670898,35.58588394927978,135.32397487670897,35.537963949279785C135.325644876709,35.488203949279786,135.32732487670899,35.431073949279785,135.32732487670899,35.36656394927979C135.31729487670898,35.381313949279786,135.31227487670898,35.39790394927979,135.30726487670898,35.41264394927978L135.29222487670899,35.45134394927979L135.28219487670899,35.49004394927979C135.277184876709,35.50294394927978,135.27383487670897,35.51769394927979,135.26882487670898,35.534273949279786L134.80753487670898,36.920173949279786L134.523400876709,36.739563949279784L134.04873687670897,34.78235394927979L134.03369487670898,34.72153394927979L134.02366687670897,34.66440394927979C134.02032387670897,34.644133949279784,134.01530987670898,34.62386394927979,134.01196687670898,34.599903949279785C134.00862487670898,34.57594394927978,134.00193887670898,34.548303949279784,133.99525387670897,34.51881394927979C133.99525387670897,34.577783949279784,133.99525387670897,34.63676394927978,133.99525387670897,34.690203949279784C133.99525387670897,34.74365394927978,133.99525387670897,34.79525394927978,133.99525387670897,34.84870394927979C133.99358287670898,34.90030394927979,133.99191087670897,34.953753949279786,133.99191087670897,35.00903394927978C133.99191087670897,35.06432394927978,133.99358287670898,35.12330394927979,133.99358287670898,35.18596394927979L133.99023987670898,36.40046394927978L133.66265487670898,36.19221394927978L133.66934028670897,33.494133949279785L134.08049287670897,33.755832949279785L134.536771876709,35.66881394927979C134.56685587670898,35.79782394927979,134.59192587670898,35.902863949279784,134.61030987670898,35.98396394927978C134.62869587670897,36.06320394927978,134.64707987670897,36.146133949279786,134.66713487670899,36.23091394927979C134.672154876709,36.212483949279786,134.67883487670898,36.18668394927978,134.687194876709,36.16456394927979C134.695554876709,36.140603949279786,134.70390487670898,36.11296394927979,134.715604876709,36.081633949279784C134.725634876709,36.048463949279785,134.73733487670899,36.01344394927978,134.750704876709,35.976583949279785C134.76407487670897,35.93788394927979,134.77911487670897,35.891813949279786,134.79750487670898,35.84205394927979L135.240404876709,34.49116994927979L135.659914876709,34.76024394927978Z" fill="#99CE3D" fill-opacity="1"/></g><g style="mix-blend-mode:passthrough"><path d="M137.48352885131837,36.71206151519775C137.48519885131836,36.57568151519775,137.46514885131836,36.439301515197755,137.42837885131837,36.30477151519776C137.38993885131836,36.170231515197756,137.32976885131836,36.03754151519775,137.24619885131835,35.90853751519776C137.18937885131837,35.821919515197756,137.12418885131837,35.74451651519775,137.05232885131835,35.678170515197756C136.97878885131837,35.609980515197755,136.88686185131837,35.541792515197756,136.77822485131836,35.47176051519775L135.98266423131835,34.964951515197754L135.97597885131836,37.663021515197755L136.31191885131835,37.876801515197755L136.31526185131835,36.80605151519775L136.78825285131836,37.106451515197755C136.89856085131836,37.17648151519776,136.98546885131836,37.220711515197756,137.05232885131835,37.24098151519775C137.11750885131835,37.26126151519775,137.18101885131836,37.264941515197755,137.24118885131836,37.25020151519775C137.32308885131835,37.23361151519775,137.38324885131837,37.17648151519776,137.42335885131837,37.08433151519775C137.46347885131837,36.99219151519775,137.48352885131837,36.86871151519775,137.48352885131837,36.71206151519775ZM137.14423885131836,36.49646151519775C137.14423885131836,36.65679151519775,137.11414885131836,36.75078151519775,137.05398885131837,36.782111515197755C136.99381885131837,36.809761515197756,136.89687785131835,36.782111515197755,136.76149885131835,36.697341515197756L136.31692085131837,36.415371515197755L136.31859285131836,35.58604551519775L136.72305885131837,35.844057515197754C136.80996885131836,35.89934551519775,136.87180785131835,35.943576515197755,136.90857785131837,35.97490151519776C136.94534685131836,36.006231515197754,136.98211885131835,36.04678151519775,137.01721885131835,36.09654151519776C137.05899885131836,36.15920151519775,137.09075885131836,36.22739151519775,137.11247885131837,36.29558151519775C137.13420885131836,36.363771515197755,137.14423885131836,36.43011151519775,137.14423885131836,36.49646151519775Z" fill-rule="evenodd" fill="#99CE3D" fill-opacity="1"/></g><g style="mix-blend-mode:passthrough"><path d="M138.0415899083252,36.27514622265625L138.0349049083252,38.56777822265625L139.04941790832518,39.21280822265625L139.0477379083252,39.61825822265625L137.6922779083252,38.75575822265625L137.70063465832519,36.05767822265625L138.0415899083252,36.27514622265625Z" fill="#99CE3D" fill-opacity="1"/></g><g style="mix-blend-mode:passthrough"><path d="M140.64887454711914,37.935640943054196L140.64720454711914,38.3410919430542L139.58255354711915,37.6628849430542L139.58088154711913,38.3705819430542L140.57700454711915,39.004551943054196L140.57533454711913,39.397101943054196L139.58088154711913,38.7631219430542L139.57753854711913,39.5463719430542L140.65723454711915,40.2337919430542L140.65723454711915,40.6429319430542L139.23825454711914,39.7398919430542L139.24493995711913,37.0418119430542L140.64887454711914,37.935640943054196Z" fill="#99CE3D" fill-opacity="1"/></g><g style="mix-blend-mode:passthrough"><path d="M142.39880872802735,39.048834305725094L142.39712872802735,39.4561343057251L141.75700272802735,39.0469943057251L141.75031672802734,41.337784305725094L141.41437472802735,41.124004305725094L141.42105972802733,38.833210305725096L140.77925872802734,38.4240743057251L140.77925872802734,38.0186243057251L142.39880872802735,39.048834305725094Z" fill="#99CE3D" fill-opacity="1"/></g><g style="mix-blend-mode:passthrough"><path d="M144.0183864984131,40.080864977539065L144.0183864984131,40.48631697753906L142.9537274984131,39.809948977539065L142.95205549841307,40.517646977539066L143.94651649841308,41.149786977539065L143.94484649841309,41.542336977539065L142.9503844984131,40.910196977539066L142.9487134984131,41.69161697753906L144.0284164984131,42.37904697753906L144.02674649841308,42.78818697753906L142.6094264984131,41.88512697753906L142.61611194841308,39.18702697753906L144.0183864984131,40.080864977539065Z" fill="#99CE3D" fill-opacity="1"/></g><g style="mix-blend-mode:passthrough"><path d="M144.5933347205957,42.847129821777344L144.9342923605957,43.06459982177734L144.9342923605957,43.495853821777345L144.5916633605957,43.278383821777346L144.5933347205957,42.847129821777344Z" fill="#99CE3D" fill-opacity="1"/></g><g style="mix-blend-mode:passthrough"><path d="M144.85572668737794,42.587310054016115L144.67187668737793,42.469360054016114L144.61170768737793,41.241944054016116L144.61337904737792,40.41261005401611L144.92926668737792,40.61349305401611L144.92592368737792,41.44283005401611L144.85572668737794,42.587310054016115Z" fill="#99CE3D" fill-opacity="1"/></g></g></g><g style="mix-blend-mode:passthrough"><g><g style="mix-blend-mode:passthrough"><path d="M125.2558653149414,54.01148071875C125.4631153149414,54.14232971875,125.6553153149414,54.31556671875,125.83248531494141,54.53119171875C126.0079753149414,54.74681571875,126.1583953149414,54.97903171875,126.28708531494141,55.23519171875C126.4107653149414,55.50058171875,126.50937531494141,55.78070171875,126.5779053149414,56.07558171875C126.64977531494141,56.37782171875,126.6848653149414,56.67822171875,126.6831953149414,56.98415171875C126.6831953149414,57.27902171875,126.65144531494141,57.54256171875,126.5862653149414,57.77477171875C126.52107531494141,58.00698171875,126.3957253149414,58.13415171875,126.2152153149414,58.15626171875C126.35728531494141,58.38294171875,126.46425531494141,58.58751171875,126.54614531494141,58.76996171875C126.6280453149414,58.94688171875,126.6882153149414,59.11643171875,126.72665531494141,59.27862171875C126.7701053149414,59.448171718750004,126.7951753149414,59.61772171875,126.80687531494141,59.78911171875C126.8185853149414,59.96051171875,126.82358531494141,60.14296171875,126.8219153149414,60.35121171875C126.8202453149414,60.69400171875,126.78180531494141,60.98702171875,126.7032553149414,61.22661171875C126.62135531494141,61.45882171875,126.5127253149414,61.63574171875,126.3656453149414,61.73894171875C126.22691531494141,61.85872171875,126.05978531494141,61.910341718750004,125.8558853149414,61.89006171875C125.65699531494141,61.87901171875,125.4330353149414,61.79055171875,125.19736531494141,61.639431718750004C124.69763531494141,61.32244171875,124.2981863149414,60.83775171875,123.9940013149414,60.19639171875C123.6931583149414,59.55137171875,123.5494227049414,58.78839171875,123.55610808794141,57.90193171875L124.3516693149414,58.40875171875C124.3499973149414,58.95425171875,124.41350831494141,59.40394171875,124.5472173149414,59.76700171875C124.6792553149414,60.12453171875,124.88984531494141,60.39544171875,125.1706253149414,60.57421171875C125.4681253149414,60.76403171875,125.6837353149414,60.78614171875,125.81744531494141,60.63687171875C125.9511453149414,60.48759171875,126.02134531494141,60.22036171875,126.02635531494141,59.835191718749996C126.0313753149414,59.49977171875,125.9628453149414,59.17725171875,125.8257953149414,58.87133171875C125.6837353149414,58.55802171875,125.43470531494141,58.28895171875,125.08204531494141,58.06412171875L124.70766531494141,57.826371718749996L124.7110053149414,56.78511171875L125.0636653149414,57.00995171875C125.31269531494141,57.16844171875,125.5115853149414,57.20162171875,125.66200531494141,57.10763171875C125.81242531494141,57.01179171875,125.8876353149414,56.80354171875,125.8876353149414,56.48102171875C125.8876353149414,56.18062171875,125.8374953149414,55.90234171875,125.7305253149414,55.64801171875C125.62690531494141,55.39184171875,125.45642531494141,55.18359171875,125.21909531494141,55.03247171875C124.9516853149414,54.86292171875,124.75780531494141,54.85370171875,124.6458253149414,55.01773171875C124.5288313149414,55.17253171875,124.47702031494141,55.54297171875,124.4837063149414,56.12165171875L123.68814431494141,55.61484171875C123.66307431494141,55.13936171875,123.68981631494141,54.76893171875,123.76836931494141,54.48696071875C123.84692231494141,54.20867571875,123.95556031494141,54.00963771875,124.1026383149414,53.89168971875C124.2497173149414,53.77742681875,124.4218653149414,53.72951021875,124.6207553149414,53.75715438875C124.8179753149414,53.78111271875,125.0335753149414,53.86957371875,125.2558653149414,54.01148071875Z" fill="#99CE3D" fill-opacity="1"/></g><g style="mix-blend-mode:passthrough"><path d="M130.3435001988983,61.10684779899597C130.34685019889832,59.90156779899597,130.21147019889833,58.86951779899597,129.9290101988983,58.007017798995975C129.6498901988983,57.14820779899597,129.2604701988983,56.56030879899597,128.7540501988983,56.239636798995974C128.2509801988983,55.91896479899597,127.85486519889831,56.00558269899597,127.56405019889831,56.497648798995975C127.27490719889832,56.99708679899597,127.12949933889831,57.842997798995974,127.13117068889832,59.046437798995974C127.12448528889831,60.24803779899597,127.26320719889831,61.27639779899597,127.55067919889832,62.131527798995975C127.83648019889831,62.981117798995975,128.23259019889832,63.57086779899597,128.7356701988983,63.89153779899597C129.2404101988983,64.21220779899598,129.63318019889832,64.12743779899597,129.9139701988983,63.63536779899597C130.1997701988983,63.15067779899597,130.3401601988983,62.30660779899597,130.3435001988983,61.10684779899597ZM129.54627019889833,60.58899779899597C129.5446001988983,61.576817798995975,129.48276019889832,62.24211779899597,129.3607501988983,62.59595779899597C129.2354001988983,62.94611779899597,129.02815019889832,63.027207798995974,128.7390101988983,62.84291779899597C128.44151019889833,62.65308779899597,128.2309201988983,62.30661779899597,128.1072351988983,61.790597798995975C127.98188419889831,61.280097798995975,127.92338719889831,60.53923779899597,127.92673019889831,59.55694779899597C127.92840119889831,58.57465779899597,127.99191219889832,57.90566779899597,128.1172641988983,57.542607798995974C128.2442901988983,57.181397798995974,128.4548801988983,57.09108779899597,128.75238019889832,57.28091779899597C129.04152019889833,57.463367798995975,129.24710019889832,57.819047798995975,129.3707801988983,58.34060779899597C129.49111019889833,58.86031779899597,129.5496101988983,59.60670779899597,129.54627019889833,60.58899779899597Z" fill-rule="evenodd" fill="#99CE3D" fill-opacity="1"/></g><g style="mix-blend-mode:passthrough"><path d="M134.15914359954834,63.355200424804686C134.39814359954835,63.506320424804684,134.58032359954834,63.720100424804684,134.71068359954833,63.99655042480469C134.83937359954834,64.27114042480468,134.90456359954834,64.58444042480468,134.90456359954834,64.93460042480469L134.89954359954834,67.09454042480469L134.40984359954834,66.7830804248047L134.41485359954834,64.80560042480468C134.41485359954834,64.68581042480469,134.40984359954834,64.58629042480469,134.40315359954835,64.50888042480469C134.39647359954833,64.43332042480469,134.38644359954833,64.36329042480469,134.37808359954835,64.30248042480468C134.34800359954835,64.21217042480468,134.30789359954835,64.13845042480469,134.25106359954833,64.06658042480468C134.19591359954833,63.99839042480469,134.12404359954834,63.93757042480469,134.04382359954835,63.88597042480469C133.93183359954833,63.81409042480469,133.83824359954835,63.79014042480469,133.75969359954834,63.804880424804686C133.68113359954833,63.82147042480469,133.62264359954833,63.87860042480469,133.58587359954834,63.97443042480469C133.57584359954834,64.03156042480468,133.56748359954835,64.10159042480468,133.56247359954833,64.18084042480469C133.55912359954834,64.26008042480468,133.55745359954835,64.38725042480469,133.55578359954833,64.55311042480469L133.55077359954834,66.23388042480468L133.04769359954835,65.91321042480469L133.05271359954833,63.90808042480469C133.05271359954833,63.64454042480469,133.03098359954834,63.456560424804685,132.98585359954834,63.33677042480469C132.93738359954833,63.21698042480469,132.85214359954833,63.11562042480469,132.72011359954834,63.03268042480469C132.60813159954833,62.960810424804684,132.51119359954833,62.93501042480469,132.43096859954835,62.955280424804684C132.34907259954835,62.973710424804686,132.29057559954833,63.040060424804686,132.25547759954833,63.152480424804686C132.23709259954833,63.20776042480469,132.22539259954834,63.27780042480469,132.21369359954835,63.355200424804686C132.20533659954833,63.43629042480469,132.20032259954834,63.54687042480469,132.20032259954834,63.690620424804685L132.19530859954833,65.37138042480468L131.70560359954834,65.05992042480469L131.71396033954835,61.89006042480469L132.18360859954834,62.18861742480469L132.18360859954834,62.461372424804686C132.28054759954833,62.387655424804684,132.38249959954834,62.36001142480469,132.48946559954834,62.372911424804684C132.59308959954834,62.38396942480469,132.70841359954835,62.428200424804686,132.83543359954834,62.509289424804685C132.96914359954835,62.59406542480469,133.08613359954833,62.704641424804684,133.18809359954835,62.842862424804686C133.28669359954833,62.982930424804685,133.37026359954834,63.152480424804686,133.44046359954834,63.355200424804686C133.54241359954835,63.26490042480469,133.65105359954833,63.21882042480469,133.77306359954835,63.21882042480469C133.89172359954833,63.22435042480469,134.02209359954833,63.26858042480469,134.15914359954834,63.355200424804686Z" fill="#99CE3D" fill-opacity="1"/></g><g style="mix-blend-mode:passthrough"><path d="M135.39426854848634,63.13036918640137L135.89734519848633,63.45104118640137L135.89400219848633,64.22138918640137L135.39259719848633,63.90256218640137L135.39426854848634,63.13036918640137Z" fill="#99CE3D" fill-opacity="1"/></g><g style="mix-blend-mode:passthrough"><path d="M135.38256931304932,67.43547951202393L135.39092605304933,64.26192951202393L135.89400231304933,64.58260151202393L135.8856443130493,67.75430951202392L135.38256931304932,67.43547951202393Z" fill="#99CE3D" fill-opacity="1"/></g><g style="mix-blend-mode:passthrough"><path d="M137.59712159088136,65.54280955737305C137.74921159088134,65.64048555737304,137.88626159088136,65.76949155737304,138.00827159088135,65.93351755737305C138.12694159088136,66.09569755737304,138.22053159088134,66.27077755737305,138.28571159088133,66.45875755737305C138.31914159088134,66.58222755737305,138.34087159088133,66.70386755737304,138.35591159088133,66.81812755737305C138.37095159088136,66.93423755737305,138.37764159088135,67.08903755737305,138.37764159088135,67.28992755737305L138.37262159088135,69.30610755737305L137.87790159088135,68.99096755737304L137.88292159088135,67.12958755737304C137.88292159088135,66.97477755737305,137.88125159088133,66.86051755737304,137.87623159088136,66.79048755737304C137.87122159088136,66.72045755737305,137.86453159088134,66.64120755737305,137.85618159088133,66.55274755737305C137.82275159088135,66.45137755737305,137.77595159088133,66.36291755737305,137.71244159088135,66.28367755737305C137.64893159088135,66.20073755737305,137.57037159088134,66.13255755737305,137.47678159088136,66.07173755737304C137.36312859088136,65.99985755737305,137.26618959088134,65.97037755737304,137.18429259088134,65.98511755737304C137.10072559088135,65.99617755737304,137.03888559088134,66.05698755737305,136.99543059088134,66.16387755737304C136.96701759088134,66.22285755737305,136.94863259088135,66.30210755737305,136.93860459088134,66.40162755737305C136.92857559088134,66.50482755737305,136.92189059088136,66.64673755737304,136.92189059088136,66.83286755737305L136.91854859088136,68.37910755737305L136.42884159088135,68.06764755737305L136.43719835088135,64.89777755737305L136.89849159088135,65.19080655737305L136.89849159088135,65.50594955737304C137.00545859088135,65.42854655737305,137.11242459088135,65.39353055737304,137.22440559088136,65.40090255737304C137.33304359088135,65.40827355737305,137.45672159088136,65.45434755737304,137.59712159088136,65.54280955737305Z" fill="#99CE3D" fill-opacity="1"/></g></g></g><g style="mix-blend-mode:passthrough"><path d="M101.51222214508057,42.69815705871582Q100.16072214508057,42.33581705871582,98.57642214508057,41.83789705871582L99.47592214508056,38.97591705871582Q100.99922214508057,39.454677058715816,102.28912214508057,39.80049705871582L101.51222214508057,42.69815705871582ZM89.08162214508057,38.68876705871582Q87.56632214508056,38.22088705871582,86.26702214508056,37.88378705871582L87.02052214508056,34.97993905871582Q88.38592214508057,35.33420825871582,89.96672214508057,35.82228505871582L89.08162214508057,38.68876705871582ZM76.87252214508057,36.82016705871582Q75.46592214508057,36.93250705871582,74.13552214508057,37.24327705871582L73.45312214508057,34.32191105871582Q75.00272214508057,33.95994705871582,76.63362214508057,33.82969705871582L76.87252214508057,36.82016705871582ZM65.47382214508056,41.17748705871582Q65.22652214508057,41.32283705871582,64.73052214508056,41.61555705871582Q63.49432214508057,42.34519705871582,62.86982214508057,42.70446705871582L61.37392214508056,40.10404705871582Q61.984022145080566,39.75304705871582,63.205722145080564,39.03200705871582Q63.70372214508057,38.73806705871582,63.953622145080566,38.59115705871582L65.47382214508056,41.17748705871582ZM53.102622145080566,46.54680705871582Q51.384722145080566,46.80860705871582,49.79682214508057,46.71300705871582L49.97702214508057,43.71846705871582Q51.24732214508057,43.79492705871582,52.65062214508057,43.58106705871582L53.102622145080566,46.54680705871582ZM40.29832214508057,41.69126705871582Q39.208122145080566,40.68372705871582,38.417422145080565,40.17111705871582L39.233322145080564,38.91244705871582L38.41762214508057,40.17126705871582Q38.301422145080565,40.09597705871582,38.18342214508057,40.02484705871582L39.731422145080565,37.45511705871582Q39.89162214508057,37.55158705871582,40.04902214508056,37.653617058715824L40.04922214508056,37.65377705871582Q41.05562214508057,38.30612705871582,42.33452214508057,39.48804705871582L40.29832214508057,41.69126705871582ZM29.666222145080567,39.35187705871582Q28.380522145080565,39.70077705871582,27.005122145080566,40.26525705871582L25.866022145080567,37.48990705871582Q27.414322145080565,36.85444705871582,28.880522145080565,36.45658705871582L29.666222145080567,39.35187705871582ZM18.596422145080567,45.02271705871582Q17.394112145080566,45.85280705871582,16.227112145080568,46.74410705871582L14.406212145080566,44.35994705871582Q15.630372145080567,43.42500705871582,16.891842145080567,42.55400705871582L18.596422145080567,45.02271705871582Z" fill="#FFFFFF" fill-opacity="1"/></g><g style="mix-blend-mode:passthrough"><path d="M130.50386087646484,45.22631828796387L130.49886087646485,47.109828287963865C124.50035087646485,43.291204387963866,119.60325087646484,46.36711828796387,119.58320087646484,53.967548287963865C119.56314087646484,61.567948287963866,124.42849087646485,70.85834828796386,130.42866087646485,74.67874828796387C136.42726087646486,78.49744828796386,141.32436087646485,75.42144828796387,141.34266087646483,67.82114828796387C141.35276087646486,64.23094828796387,140.25966087646484,60.11194828796387,138.31916087646485,56.313648287963865L138.12866087646483,58.21374828796387L136.65286087646484,57.05634828796387L137.13586087646485,52.22590828796387L141.18386087646485,55.39954828796387L141.00846087646485,57.16134828796387L139.56606087646483,56.02974828796387C141.66526087646486,60.252048287963866,142.84026087646484,64.79494828796386,142.83016087646484,68.76834828796387C142.80846087646484,77.40824828796386,137.24286087646485,80.90434828796387,130.42536087646485,76.56414828796386C123.60617087646484,72.22394828796386,118.07729697646485,61.66374828796387,118.09902469816484,53.023918287963866C118.11908107646484,44.380398287963864,123.68473087646484,40.88612828796387,130.50386087646484,45.22631828796387Z" fill="#99CE3D" fill-opacity="1"/></g></g></g><g style="mix-blend-mode:passthrough"><path d="M7.62109,3.28582Q7.41146,4.12436,7.01953,5.28647L10.36458,5.28647L10.36458,6.23895Q10,8.33986,9.35286,9.92124Q8.71029,11.5026,7.59831,12.9017Q6.486330000000001,14.3008,4.70898,15.7318L4.02083,14.916Q5.75716,13.5762,6.81445,12.2956Q7.87174,11.0104,8.45964,9.59311Q9.04753,8.17124,9.41211,6.23895L6.6549499999999995,6.23895Q6.29036,7.19142,5.81185,8.1439Q6.10807,8.33986,6.3724,8.53582Q6.64128,8.73179,6.87826,8.89585Q7.62109,9.44272,7.92643,9.65236L7.35221,10.5501Q6.58203,9.90757,5.35156,9.00978Q4.9459599999999995,9.73895,4.4127600000000005,10.5091L3.75651,9.75262Q4.66797,8.40822,5.44271,6.62632Q6.22201,4.83986,6.668620000000001,3.03061L7.62109,3.28582ZM15.5599,10.7324Q14.5801,9.79364,12.54753,8.05731L12.54753,15.7455L11.60872,15.7455L11.60872,3.05796L12.54753,3.05796L12.54753,6.85418Q13.4863,7.61069,14.5618,8.52215Q15.6419,9.42905,16.1341,9.90757L15.5599,10.7324ZM28.6074,9.65236L27.778,9.34702L28.6895,7.48309L18.2578,7.48309L18.2578,6.68556L23.526,6.68556L23.526,5.1452L18.8776,5.1452L18.8776,4.334L23.526,4.334L23.526,2.96226L24.4603,2.96226L24.4603,4.334L29.3047,4.334L29.3047,5.1452L24.4603,5.1452L24.4603,6.68556L29.6419,6.68556L29.6419,7.48309L28.6074,9.65236ZM23.3118,9.84832Q22.724,9.54298,21.7806,9.08726Q20.8372,8.63153,20.3724,8.43556L20.6686,7.7064Q21.2975,7.9616,23.3118,8.89585L23.6628,9.06447L23.3118,9.84832ZM30.0612,12.4688L25.1348,12.4688Q25.0801,12.5918,24.9388,12.8197Q28.6211,14.3145,29.9062,14.875L29.5007,15.6862Q28.1699,15.071,24.4056,13.5033Q23.6354,14.2735,22.1999,14.8067Q20.7643,15.3399,18.3444,15.7865L18.0801,14.9024Q20.7643,14.4421,22.127,13.8906Q23.4941,13.3347,24.0547,12.4688L17.979799999999997,12.4688L17.979799999999997,11.6712L24.4329,11.6712Q24.6426,10.9968,24.6882,9.75262L24.7428,7.88869L25.709,7.88869L25.6497,9.88022Q25.6087,10.9557,25.4128,11.6712L30.0612,11.6712L30.0612,12.4688ZM19.6022,9.30601Q20.3451,9.62502,21.2839,10.0534Q22.2227,10.4818,22.724,10.7324L22.4049,11.4616Q21.7305,11.1244,20.778,10.6914Q19.8301,10.2539,19.2832,10.0306L19.6022,9.30601ZM42.8854,13.3939Q43.1543,12.2455,43.25,11.6439L44.0612,12.0495Q43.7969,13.5033,43.6556,13.9955Q43.3913,14.875,42.9993,15.2305Q42.6074,15.5905,42.0059,15.5905Q41.5137,15.5905,41.0807,15.308Q40.6478,15.03,40.1829,14.3418Q38.9525,12.6511,38.4603,8.39455L35.4798,8.68621L35.4115,7.73374L38.3646,7.44207Q38.278,6.65822,38.237,5.74676L38.1003,3.01694L39.0482,3.01694Q39.1074,4.7396,39.1758,5.78778Q39.2031,6.40757,39.2897,7.34181L43.9928,6.88153L44.0612,7.834L39.3854,8.29429Q39.6361,10.3542,40.0553,11.735Q40.4792,13.1113,40.9668,13.7722Q41.2493,14.1777,41.4909,14.3327Q41.737,14.4831,42.0059,14.4831Q42.2428,14.4831,42.3887,14.4056Q42.5345,14.3281,42.653,14.1003Q42.776,13.8679,42.8854,13.3939ZM35.8991,3.3952Q35.3249,5.09051,34.6413,6.54429L34.6413,15.7318L33.7025,15.7318L33.7025,8.35353Q33.000699999999995,9.57033,32.1211,10.7188L31.7292,9.62502Q32.6361,8.53582,33.5111,6.75848Q34.3861,4.97658,34.974000000000004,3.10353L35.8991,3.3952ZM42.5801,6.26629Q42.0879,5.7741,41.3861,5.12697Q40.6888,4.47528,40.2969,4.13804L40.8301,3.50913Q41.2038,3.81447,41.9238,4.45249Q42.6484,5.09051,43.1543,5.56447L42.5801,6.26629ZM52.4603,13.002Q51.8177,13.0977,51.3301,13.1843L51.3301,15.7865L50.4323,15.7865L50.4323,13.321L45.9388,14.0912L45.8522,13.166Q46.6224,13.0567,46.9596,12.9837L46.9596,4.57098L46.0801,4.57098L46.0801,3.67775L52.1276,3.67775L52.1276,4.57098L51.3301,4.57098L51.3301,12.2455Q52.1549,12.1042,52.4056,12.0495L52.4329,12.5098L52.4603,13.002ZM55.582,11.8535Q56.5208,13.2526,58.2572,14.752L57.6556,15.5495Q56.0332,14.0912,55.0397,12.6921Q54.0143,14.1322,52.2643,15.6042L51.6764,14.8203Q53.513,13.3347,54.5065,11.8809Q53.75,10.5775,53.2852,9.0189Q52.8249,7.45574,52.5469,5.30015L52.5469,4.34767L57.5462,4.34767L57.5462,5.30015Q57.2227,7.49676,56.7715,9.03712Q56.3249,10.5775,55.582,11.8535ZM50.4323,6.68556L50.4323,4.57098L47.8574,4.57098L47.8574,6.68556L50.4323,6.68556ZM53.472,5.30015Q53.6953,7.11851,54.0736,8.48569Q54.4518,9.84832,55.0534,10.9694Q55.6276,9.88022,55.9831,8.53127Q56.3385,7.17775,56.6074,5.30015L53.472,5.30015ZM50.4323,7.53778L47.8574,7.53778L47.8574,9.584L50.4323,9.584L50.4323,7.53778ZM47.8574,10.4499L47.8574,12.847L50.4323,12.3958L50.4323,10.4499L47.8574,10.4499Z" fill="#F4F4F4" fill-opacity="1"/></g></g></g></svg>