<svg xmlns="http://www.w3.org/2000/svg" xmlns:xlink="http://www.w3.org/1999/xlink" fill="none" version="1.1" width="12" height="14.976617813110352" viewBox="0 0 12 14.976617813110352"><defs><linearGradient x1="0.2207144796848297" y1="0.10826224088668823" x2="0.5" y2="1" id="master_svg0_9_78301"><stop offset="0%" stop-color="#B57EFD" stop-opacity="1"/><stop offset="100%" stop-color="#745EFD" stop-opacity="1"/></linearGradient></defs><g style="mix-blend-mode:passthrough"><g><g style="mix-blend-mode:passthrough"><path d="M6.33379,14.8556C6.97597,14.3201,7.56355,13.7903,8.09655,13.2663L8.2824,13.0816C10.7608,10.5912,12,8.23063,12,6.00001C12,2.6863,9.31371,0,6,0C2.68629,0,0,2.6863,0,6.00001C0,8.45673,1.49599,11.0652,4.48798,13.8255L4.69195,14.0118C4.96693,14.2605,5.254,14.5105,5.55317,14.7617L5.66592,14.8559C5.85946,15.017,6.14041,15.0168,6.33379,14.8556Z" fill-rule="evenodd" fill="url(#master_svg0_9_78301)" fill-opacity="1"/></g><g style="mix-blend-mode:passthrough"><ellipse cx="5.999999284744263" cy="6.000005006790161" rx="1.999999761581421" ry="2.0000016689300537" fill="#F2EDFE" fill-opacity="1"/></g></g></g></svg>