<svg xmlns="http://www.w3.org/2000/svg" xmlns:xlink="http://www.w3.org/1999/xlink" fill="none" version="1.1" width="20" height="20" viewBox="0 0 20 20"><g style="mix-blend-mode:passthrough"><path d="M20,10Q20,10.2455,19.988,10.4907Q19.9759,10.7359,19.9518,10.9802Q19.9278,11.2245,19.8918,11.4673Q19.8557,11.7101,19.8078,11.9509Q19.76,12.1917,19.7003,12.4298Q19.6407,12.6679,19.5694,12.9028Q19.4981,13.1378,19.4154,13.3689Q19.3327,13.6,19.2388,13.8268Q19.1448,14.0536,19.0399,14.2755Q18.9349,14.4975,18.8192,14.714Q18.7035,14.9305,18.5773,15.141Q18.4511,15.3516,18.3147,15.5557Q18.1783,15.7598,18.0321,15.957Q17.8858,16.1542,17.7301,16.3439Q17.5744,16.5337,17.4095,16.7156Q17.2446,16.8975,17.0711,17.0711Q16.8975,17.2446,16.7156,17.4095Q16.5337,17.5744,16.3439,17.7301Q16.1542,17.8858,15.957,18.0321Q15.7598,18.1783,15.5557,18.3147Q15.3516,18.4511,15.141,18.5773Q14.9305,18.7035,14.714,18.8192Q14.4975,18.9349,14.2755,19.0399Q14.0536,19.1448,13.8268,19.2388Q13.6,19.3327,13.3689,19.4154Q13.1378,19.4981,12.9028,19.5694Q12.6679,19.6407,12.4298,19.7003Q12.1917,19.76,11.9509,19.8078Q11.7101,19.8557,11.4673,19.8918Q11.2245,19.9278,10.9802,19.9518Q10.7359,19.9759,10.4907,19.988Q10.2455,20,10,20Q9.75451,20,9.50932,19.988Q9.26413,19.9759,9.01983,19.9518Q8.77552,19.9278,8.53269,19.8918Q8.28987,19.8557,8.0491,19.8078Q7.80833,19.76,7.5702,19.7003Q7.33207,19.6407,7.09715,19.5694Q6.86224,19.4981,6.6311,19.4154Q6.39996,19.3327,6.17316,19.2388Q5.94636,19.1448,5.72445,19.0399Q5.50253,18.9349,5.28603,18.8192Q5.06953,18.7035,4.85897,18.5773Q4.64841,18.4511,4.4443,18.3147Q4.24018,18.1783,4.04301,18.0321Q3.84583,17.8858,3.65607,17.7301Q3.4663,17.5744,3.28441,17.4095Q3.10252,17.2446,2.92893,17.0711Q2.75535,16.8975,2.59049,16.7156Q2.42563,16.5337,2.2699,16.3439Q2.11416,16.1542,1.96792,15.957Q1.82169,15.7598,1.6853,15.5557Q1.54892,15.3516,1.42271,15.141Q1.29651,14.9305,1.18079,14.714Q1.06507,14.4975,0.960107,14.2755Q0.855148,14.0536,0.761205,13.8268Q0.667261,13.6,0.584559,13.3689Q0.501857,13.1378,0.430597,12.9028Q0.359336,12.6679,0.299687,12.4298Q0.240039,12.1917,0.192147,11.9509Q0.144255,11.7101,0.108235,11.4673Q0.0722146,11.2245,0.0481527,10.9802Q0.0240909,10.7359,0.0120454,10.4907Q0,10.2455,0,10Q0,9.75451,0.0120454,9.50932Q0.0240909,9.26413,0.0481527,9.01983Q0.0722146,8.77552,0.108235,8.53269Q0.144255,8.28987,0.192147,8.0491Q0.240039,7.80833,0.299687,7.5702Q0.359336,7.33207,0.430597,7.09715Q0.501857,6.86224,0.584559,6.6311Q0.667261,6.39996,0.761205,6.17316Q0.855148,5.94636,0.960107,5.72445Q1.06507,5.50253,1.18079,5.28603Q1.29651,5.06953,1.42271,4.85897Q1.54892,4.64841,1.6853,4.4443Q1.82169,4.24018,1.96792,4.04301Q2.11416,3.84583,2.2699,3.65607Q2.42563,3.4663,2.59049,3.28441Q2.75535,3.10252,2.92893,2.92893Q3.10252,2.75535,3.28441,2.59049Q3.4663,2.42563,3.65607,2.2699Q3.84583,2.11416,4.04301,1.96792Q4.24018,1.82169,4.4443,1.6853Q4.64841,1.54892,4.85897,1.42271Q5.06953,1.29651,5.28603,1.18079Q5.50253,1.06507,5.72445,0.960107Q5.94636,0.855148,6.17316,0.761205Q6.39996,0.667261,6.6311,0.584559Q6.86224,0.501857,7.09715,0.430597Q7.33207,0.359336,7.5702,0.299687Q7.80833,0.240039,8.0491,0.192147Q8.28987,0.144255,8.53269,0.108235Q8.77552,0.0722146,9.01983,0.0481527Q9.26413,0.0240909,9.50932,0.0120454Q9.75451,0,10,0Q10.2455,0,10.4907,0.0120454Q10.7359,0.0240909,10.9802,0.0481527Q11.2245,0.0722146,11.4673,0.108235Q11.7101,0.144255,11.9509,0.192147Q12.1917,0.240039,12.4298,0.299687Q12.6679,0.359336,12.9028,0.430597Q13.1378,0.501857,13.3689,0.584559Q13.6,0.667261,13.8268,0.761205Q14.0536,0.855148,14.2755,0.960107Q14.4975,1.06507,14.714,1.18079Q14.9305,1.29651,15.141,1.42271Q15.3516,1.54892,15.5557,1.6853Q15.7598,1.82169,15.957,1.96792Q16.1542,2.11416,16.3439,2.2699Q16.5337,2.42563,16.7156,2.59049Q16.8975,2.75535,17.0711,2.92893Q17.2446,3.10252,17.4095,3.28441Q17.5744,3.4663,17.7301,3.65607Q17.8858,3.84583,18.0321,4.04301Q18.1783,4.24018,18.3147,4.4443Q18.4511,4.64841,18.5773,4.85897Q18.7035,5.06953,18.8192,5.28603Q18.9349,5.50253,19.0399,5.72445Q19.1448,5.94636,19.2388,6.17316Q19.3327,6.39996,19.4154,6.6311Q19.4981,6.86224,19.5694,7.09715Q19.6407,7.33207,19.7003,7.5702Q19.76,7.80833,19.8078,8.0491Q19.8557,8.28987,19.8918,8.53269Q19.9278,8.77552,19.9518,9.01983Q19.9759,9.26413,19.988,9.50932Q20,9.75451,20,10ZM19,10Q19,8.2833,18.3681,6.68715Q17.682,4.95406,16.364,3.63604Q15.0459,2.31802,13.3129,1.63191Q11.7167,1,10,1Q8.28331,1,6.68715,1.63191Q4.95406,2.31802,3.63604,3.63604Q2.31802,4.95406,1.63191,6.68715Q1,8.28331,1,10Q1,11.7167,1.63191,13.3129Q2.31802,15.0459,3.63604,16.364Q4.95406,17.682,6.68715,18.3681Q8.2833,19,10,19Q11.7167,19,13.3129,18.3681Q15.0459,17.682,16.364,16.364Q17.682,15.0459,18.3681,13.3129Q19,11.7167,19,10ZM13.6111,7.77781Q13.7066,7.77781,13.8017,7.76844Q13.8967,7.75908,13.9904,7.74044Q14.0841,7.72181,14.1755,7.69408Q14.2669,7.66635,14.3552,7.62979Q14.4434,7.59324,14.5277,7.54821Q14.6119,7.50318,14.6913,7.45011Q14.7708,7.39704,14.8446,7.33644Q14.9185,7.27584,14.986,7.20829Q15.0535,7.14074,15.1141,7.0669Q15.1747,6.99306,15.2278,6.91363Q15.2809,6.83421,15.3259,6.74997Q15.3709,6.66572,15.4075,6.57747Q15.4441,6.48921,15.4718,6.3978Q15.4995,6.30639,15.5182,6.2127Q15.5368,6.11901,15.5462,6.02395Q15.5555,5.92889,15.5555,5.83336Q15.5555,5.73784,15.5462,5.64277Q15.5368,5.54771,15.5182,5.45402Q15.4995,5.36033,15.4718,5.26892Q15.4441,5.17751,15.4075,5.08925Q15.3709,5.001,15.3259,4.91676Q15.2809,4.83251,15.2278,4.75308Q15.1747,4.67366,15.1141,4.59982Q15.0535,4.52598,14.986,4.45843Q14.9185,4.39088,14.8446,4.33028Q14.7708,4.26968,14.6913,4.21661Q14.6119,4.16354,14.5277,4.11851Q14.4434,4.07348,14.3552,4.03693Q14.2669,4.00037,14.1755,3.97264Q14.0841,3.94491,13.9904,3.92628Q13.8967,3.90764,13.8017,3.89828Q13.7066,3.88892,13.6111,3.88892Q13.4617,3.88892,13.3142,3.91172Q13.1666,3.93452,13.0242,3.97959Q12.8818,4.02466,12.748,4.09095Q12.6142,4.15723,12.4921,4.24317Q12.3699,4.32911,12.2624,4.43269Q12.1548,4.53626,12.0643,4.65506Q11.9738,4.77385,11.9025,4.90506Q11.8312,5.03628,11.7808,5.17684L5.20175,10.0015Q5.10868,10.0051,5.01638,10.0176Q4.92409,10.0302,4.83341,10.0515Q4.74273,10.0727,4.6545,10.1026Q4.56627,10.1325,4.4813,10.1706Q4.39633,10.2088,4.31539,10.2549Q4.23446,10.301,4.1583,10.3546Q4.08214,10.4082,4.01146,10.4689Q3.94078,10.5295,3.87621,10.5967Q3.81165,10.6638,3.7538,10.7368Q3.69595,10.8098,3.64535,10.888Q3.59474,10.9662,3.55184,11.0489Q3.50894,11.1315,3.47414,11.2179Q3.43934,11.3043,3.41295,11.3937Q3.38657,11.483,3.36884,11.5744Q3.35112,11.6659,3.34222,11.7586Q3.33331,11.8513,3.33331,11.9444Q3.33331,12.04,3.34268,12.135Q3.35204,12.2301,3.37067,12.3238Q3.38931,12.4175,3.41704,12.5089Q3.44477,12.6003,3.48132,12.6885Q3.51788,12.7768,3.56291,12.861Q3.60794,12.9453,3.66101,13.0247Q3.71408,13.1041,3.77468,13.178Q3.83528,13.2518,3.90283,13.3194Q3.97037,13.3869,4.04422,13.4475Q4.11806,13.5081,4.19748,13.5612Q4.27691,13.6143,4.36115,13.6593Q4.4454,13.7043,4.53365,13.7409Q4.6219,13.7774,4.71332,13.8052Q4.80473,13.8329,4.89842,13.8515Q4.9921,13.8702,5.08717,13.8795Q5.18223,13.8889,5.27776,13.8889Q5.50105,13.8889,5.71852,13.8383Q5.936,13.7877,6.13634,13.6891Q6.33668,13.5905,6.50946,13.449Q6.68224,13.3076,6.81846,13.1307L11.6773,14.5189Q11.6666,14.6203,11.6666,14.7223Q11.6666,14.8178,11.676,14.9129Q11.6854,15.0079,11.704,15.1016Q11.7226,15.1953,11.7504,15.2867Q11.7781,15.3781,11.8146,15.4664Q11.8512,15.5546,11.8962,15.6389Q11.9413,15.7231,11.9943,15.8026Q12.0474,15.882,12.108,15.9558Q12.1686,16.0297,12.2361,16.0972Q12.3037,16.1648,12.3775,16.2254Q12.4514,16.286,12.5308,16.339Q12.6102,16.3921,12.6945,16.4371Q12.7787,16.4822,12.867,16.5187Q12.9552,16.5553,13.0466,16.583Q13.138,16.6107,13.2317,16.6294Q13.3254,16.648,13.4205,16.6574Q13.5155,16.6667,13.6111,16.6667Q13.7066,16.6667,13.8017,16.6574Q13.8967,16.648,13.9904,16.6294Q14.0841,16.6107,14.1755,16.583Q14.2669,16.5553,14.3552,16.5187Q14.4434,16.4822,14.5277,16.4371Q14.6119,16.3921,14.6913,16.339Q14.7708,16.286,14.8446,16.2254Q14.9185,16.1648,14.986,16.0972Q15.0535,16.0297,15.1141,15.9558Q15.1747,15.882,15.2278,15.8025Q15.2809,15.7231,15.3259,15.6389Q15.3709,15.5546,15.4075,15.4664Q15.4441,15.3781,15.4718,15.2867Q15.4995,15.1953,15.5182,15.1016Q15.5368,15.0079,15.5462,14.9129Q15.5555,14.8178,15.5555,14.7223Q15.5555,14.6268,15.5462,14.5317Q15.5368,14.4366,15.5182,14.3429Q15.4995,14.2492,15.4718,14.1578Q15.4441,14.0664,15.4075,13.9782Q15.3709,13.8899,15.3259,13.8057Q15.2809,13.7214,15.2278,13.642Q15.1747,13.5626,15.1141,13.4887Q15.0535,13.4149,14.986,13.3473Q14.9185,13.2798,14.8446,13.2192Q14.7708,13.1586,14.6913,13.1055Q14.6119,13.0525,14.5277,13.0074Q14.4434,12.9624,14.3552,12.9258Q14.2669,12.8893,14.1755,12.8616Q14.0841,12.8338,13.9904,12.8152Q13.8967,12.7966,13.8017,12.7872Q13.7066,12.7778,13.6111,12.7778Q13.3518,12.7778,13.1015,12.8458L7.05929,11.1194L12.3042,7.27315Q12.4372,7.3939,12.5901,7.48822Q12.743,7.58254,12.9106,7.64726Q13.0782,7.71198,13.2548,7.74489Q13.4314,7.77781,13.6111,7.77781Z" fill-rule="evenodd" fill="#F68F4F" fill-opacity="1"/></g></svg>